<mxfile host="Electron" agent="Mozilla/5.0 (Windows NT 10.0; Win64; x64) AppleWebKit/537.36 (KHTML, like Gecko) draw.io/24.4.13 Chrome/124.0.6367.207 Electron/30.0.6 Safari/537.36" modified="2025-07-15T14:44:15.668Z" etag="z7GYoEMALVjw5tDHNPDS" version="24.4.13" type="device">
  <diagram id="C5RBs43oDa-KdzZeNtuy" name="Page-1">
    <mxGraphModel dx="1595" dy="758" grid="1" gridSize="10" guides="1" tooltips="1" connect="1" arrows="1" fold="1" page="1" pageScale="1" pageWidth="2336" pageHeight="1654" math="0" shadow="0">
      <root>
        <mxCell id="WIyWlLk6GJQsqaUBKTNV-0" />
        <mxCell id="WIyWlLk6GJQsqaUBKTNV-1" parent="WIyWlLk6GJQsqaUBKTNV-0" />
        <mxCell id="fcJVb3HREh7NScvAmxeq-0" value="" style="group" parent="WIyWlLk6GJQsqaUBKTNV-1" vertex="1" connectable="0">
          <mxGeometry x="40" y="40" width="490" height="220" as="geometry" />
        </mxCell>
        <mxCell id="fcJVb3HREh7NScvAmxeq-1" value="&lt;font color=&quot;#000000&quot; size=&quot;1&quot;&gt;&lt;b style=&quot;font-size: 14px&quot;&gt;Legend:&lt;br&gt;&lt;/b&gt;&lt;/font&gt;&lt;br&gt;&lt;br&gt;&lt;br&gt;&lt;font color=&quot;#0000ff&quot; style=&quot;font-size: 6px&quot;&gt;&lt;br&gt;&lt;/font&gt;&lt;span style=&quot;color: rgb(0 , 0 , 0)&quot;&gt;&lt;font style=&quot;font-size: 4px&quot;&gt;&amp;nbsp; &amp;nbsp;&lt;/font&gt;&amp;nbsp;In progress&amp;nbsp; &amp;nbsp; &amp;nbsp; &amp;nbsp; &amp;nbsp; &amp;nbsp; In validation&amp;nbsp; &amp;nbsp; &amp;nbsp; &amp;nbsp; &amp;nbsp; &amp;nbsp;Ready to use&lt;/span&gt;&lt;font color=&quot;#000000&quot;&gt;&amp;nbsp;&lt;br&gt;&lt;/font&gt;&lt;font color=&quot;#0000ff&quot;&gt;&lt;br&gt;&lt;br&gt;&lt;br&gt;&lt;br&gt;&amp;nbsp;attribute / method()&amp;nbsp; &amp;nbsp; &amp;nbsp; &amp;nbsp; New public attribute/method to be implemented&lt;/font&gt;&lt;br&gt;&lt;font color=&quot;#000000&quot;&gt;&amp;nbsp;&lt;/font&gt;&lt;font color=&quot;#000000&quot;&gt;attribute / method()&lt;span&gt; &lt;/span&gt;&amp;nbsp; &amp;nbsp; &amp;nbsp; &amp;nbsp;New/inherited public attribute/method that is implemented here&lt;br&gt;&lt;/font&gt;&lt;font color=&quot;#0000ff&quot;&gt;&amp;nbsp;_attribute /&amp;nbsp;&lt;/font&gt;&lt;font color=&quot;#0000ff&quot;&gt;_method()&amp;nbsp; &amp;nbsp; New protected method/attribute to be implemented&lt;/font&gt;&lt;br&gt;&lt;font color=&quot;#000000&quot;&gt;&amp;nbsp;_attribute / _method()&amp;nbsp; &amp;nbsp; New/inherited protected attribute/method that is implemented here&lt;br&gt;&lt;/font&gt;&lt;font color=&quot;#000000&quot;&gt;&lt;br&gt;&lt;br&gt;&lt;br&gt;&lt;br&gt;&lt;br&gt;&lt;/font&gt;" style="text;html=1;align=left;verticalAlign=top;whiteSpace=wrap;rounded=0;fontColor=#006600;strokeColor=#000000;shadow=1;fillColor=#ffffff;" parent="fcJVb3HREh7NScvAmxeq-0" vertex="1">
          <mxGeometry width="489.99999999999994" height="220" as="geometry" />
        </mxCell>
        <mxCell id="fcJVb3HREh7NScvAmxeq-2" value="Depends on" style="endArrow=block;html=1;labelPosition=right;verticalLabelPosition=middle;align=left;verticalAlign=middle;endFill=1;fontSize=12;" parent="fcJVb3HREh7NScvAmxeq-0" edge="1">
          <mxGeometry x="-1623.1249999999998" y="-2180" width="51.041666666666664" height="50" as="geometry">
            <mxPoint x="10.20802398989899" y="120.00301587301601" as="sourcePoint" />
            <mxPoint x="55.990852272727174" y="120.00301587301601" as="targetPoint" />
            <mxPoint x="98" as="offset" />
            <Array as="points">
              <mxPoint x="30.624999999999996" y="120" />
            </Array>
          </mxGeometry>
        </mxCell>
        <mxCell id="fcJVb3HREh7NScvAmxeq-3" value="Inherits from" style="endArrow=block;html=1;labelPosition=right;verticalLabelPosition=middle;align=left;verticalAlign=middle;endFill=0;fontSize=12;" parent="fcJVb3HREh7NScvAmxeq-0" edge="1">
          <mxGeometry x="-1623.1249999999998" y="-2180" width="51.041666666666664" height="50" as="geometry">
            <mxPoint x="10.20802398989899" y="132.3846031746034" as="sourcePoint" />
            <mxPoint x="55.990852272727174" y="132.3846031746034" as="targetPoint" />
            <mxPoint x="98" y="1" as="offset" />
          </mxGeometry>
        </mxCell>
        <mxCell id="fcJVb3HREh7NScvAmxeq-4" value="" style="swimlane;fontStyle=3;align=center;verticalAlign=top;childLayout=stackLayout;horizontal=1;startSize=26;horizontalStack=0;resizeParent=1;resizeLast=0;collapsible=1;marginBottom=0;rounded=0;shadow=1;strokeWidth=1;fillColor=#f8cecc;strokeColor=#b85450;gradientColor=#ffffff;swimlaneFillColor=#ffffff;" parent="fcJVb3HREh7NScvAmxeq-0" vertex="1">
          <mxGeometry x="10.208333333333332" y="40" width="40.83333333333333" height="34" as="geometry">
            <mxRectangle x="230" y="140" width="160" height="26" as="alternateBounds" />
          </mxGeometry>
        </mxCell>
        <mxCell id="fcJVb3HREh7NScvAmxeq-5" value="" style="line;html=1;strokeWidth=1;align=left;verticalAlign=middle;spacingTop=-1;spacingLeft=3;spacingRight=3;rotatable=0;labelPosition=right;points=[];portConstraint=eastwest;" parent="fcJVb3HREh7NScvAmxeq-4" vertex="1">
          <mxGeometry y="26" width="40.83333333333333" height="8" as="geometry" />
        </mxCell>
        <mxCell id="fcJVb3HREh7NScvAmxeq-6" value="" style="swimlane;fontStyle=3;align=center;verticalAlign=top;childLayout=stackLayout;horizontal=1;startSize=26;horizontalStack=0;resizeParent=1;resizeLast=0;collapsible=1;marginBottom=0;rounded=0;shadow=1;strokeWidth=1;fillColor=#fff2cc;strokeColor=#d6b656;gradientColor=#ffffff;swimlaneFillColor=#ffffff;" parent="fcJVb3HREh7NScvAmxeq-0" vertex="1">
          <mxGeometry x="112.29166666666666" y="40" width="40.83333333333333" height="34" as="geometry">
            <mxRectangle x="230" y="140" width="160" height="26" as="alternateBounds" />
          </mxGeometry>
        </mxCell>
        <mxCell id="fcJVb3HREh7NScvAmxeq-7" value="" style="line;html=1;strokeWidth=1;align=left;verticalAlign=middle;spacingTop=-1;spacingLeft=3;spacingRight=3;rotatable=0;labelPosition=right;points=[];portConstraint=eastwest;" parent="fcJVb3HREh7NScvAmxeq-6" vertex="1">
          <mxGeometry y="26" width="40.83333333333333" height="8" as="geometry" />
        </mxCell>
        <mxCell id="fcJVb3HREh7NScvAmxeq-8" value="" style="swimlane;fontStyle=3;align=center;verticalAlign=top;childLayout=stackLayout;horizontal=1;startSize=26;horizontalStack=0;resizeParent=1;resizeLast=0;collapsible=1;marginBottom=0;rounded=0;shadow=1;strokeWidth=1;fillColor=#dae8fc;strokeColor=#6c8ebf;gradientColor=#ffffff;swimlaneFillColor=#ffffff;" parent="fcJVb3HREh7NScvAmxeq-0" vertex="1">
          <mxGeometry x="214.37499999999997" y="40" width="40.83333333333333" height="34" as="geometry">
            <mxRectangle x="230" y="140" width="160" height="26" as="alternateBounds" />
          </mxGeometry>
        </mxCell>
        <mxCell id="fcJVb3HREh7NScvAmxeq-9" value="" style="line;html=1;strokeWidth=1;align=left;verticalAlign=middle;spacingTop=-1;spacingLeft=3;spacingRight=3;rotatable=0;labelPosition=right;points=[];portConstraint=eastwest;" parent="fcJVb3HREh7NScvAmxeq-8" vertex="1">
          <mxGeometry y="26" width="40.83333333333333" height="8" as="geometry" />
        </mxCell>
        <mxCell id="0cJ1NAXk0Xtcf3CmwPfC-0" style="edgeStyle=orthogonalEdgeStyle;rounded=0;orthogonalLoop=1;jettySize=auto;html=1;endArrow=block;endFill=1;" parent="WIyWlLk6GJQsqaUBKTNV-1" source="4use4ZCXdNiZSNTW99xv-1" target="4use4ZCXdNiZSNTW99xv-16" edge="1">
          <mxGeometry relative="1" as="geometry" />
        </mxCell>
        <mxCell id="4use4ZCXdNiZSNTW99xv-1" value="ChangeDetector&#xa;(OAStreamTask)" style="swimlane;align=center;verticalAlign=top;childLayout=stackLayout;horizontal=1;startSize=41;horizontalStack=0;resizeParent=1;resizeLast=0;collapsible=1;marginBottom=0;rounded=0;shadow=1;strokeWidth=1;fillColor=#dae8fc;strokeColor=#6c8ebf;swimlaneFillColor=#ffffff;gradientColor=#FFFFFF;" parent="WIyWlLk6GJQsqaUBKTNV-1" vertex="1">
          <mxGeometry x="1060" y="620" width="350" height="753" as="geometry">
            <mxRectangle x="230" y="140" width="160" height="26" as="alternateBounds" />
          </mxGeometry>
        </mxCell>
        <mxCell id="4use4ZCXdNiZSNTW99xv-2" value="C_TYPE                           = &#39;Change Detector&#39;" style="text;align=left;verticalAlign=top;spacingLeft=4;spacingRight=4;overflow=hidden;rotatable=0;points=[[0,0.5],[1,0.5]];portConstraint=eastwest;fontStyle=0;fontColor=default;" parent="4use4ZCXdNiZSNTW99xv-1" vertex="1">
          <mxGeometry y="41" width="350" height="26" as="geometry" />
        </mxCell>
        <mxCell id="oLJumqx1HHhM9YScGNT0-0" value="C_PLOT_ACTIVE&amp;nbsp; &amp;nbsp; &amp;nbsp; &amp;nbsp; &amp;nbsp;&lt;span style=&quot;white-space: pre;&quot;&gt;&#x9;&lt;/span&gt;&amp;nbsp;= True" style="text;align=left;verticalAlign=top;spacingLeft=4;spacingRight=4;overflow=hidden;rotatable=0;points=[[0,0.5],[1,0.5]];portConstraint=eastwest;html=1;" parent="4use4ZCXdNiZSNTW99xv-1" vertex="1">
          <mxGeometry y="67" width="350" height="24" as="geometry" />
        </mxCell>
        <mxCell id="iRqbgX-deYLXcJWkZiLP-0" value="C_PLOT_STANDALONE = False" style="text;align=left;verticalAlign=top;spacingLeft=4;spacingRight=4;overflow=hidden;rotatable=0;points=[[0,0.5],[1,0.5]];portConstraint=eastwest;" parent="4use4ZCXdNiZSNTW99xv-1" vertex="1">
          <mxGeometry y="91" width="350" height="26" as="geometry" />
        </mxCell>
        <mxCell id="K-uiR6WVb6SvZu_kqw6H-5" value="_change_id : int = 0" style="text;align=left;verticalAlign=top;spacingLeft=4;spacingRight=4;overflow=hidden;rotatable=0;points=[[0,0.5],[1,0.5]];portConstraint=eastwest;" parent="4use4ZCXdNiZSNTW99xv-1" vertex="1">
          <mxGeometry y="117" width="350" height="24" as="geometry" />
        </mxCell>
        <mxCell id="Lc1qOGf0GpVHGxsOyzFd-0" value="_change_buffer_size : int" style="text;align=left;verticalAlign=top;spacingLeft=4;spacingRight=4;overflow=hidden;rotatable=0;points=[[0,0.5],[1,0.5]];portConstraint=eastwest;" parent="4use4ZCXdNiZSNTW99xv-1" vertex="1">
          <mxGeometry y="141" width="350" height="24" as="geometry" />
        </mxCell>
        <mxCell id="8DNwKKLDSiER4BuiegUp-0" value="_thrs_inst : int" style="text;align=left;verticalAlign=top;spacingLeft=4;spacingRight=4;overflow=hidden;rotatable=0;points=[[0,0.5],[1,0.5]];portConstraint=eastwest;" parent="4use4ZCXdNiZSNTW99xv-1" vertex="1">
          <mxGeometry y="165" width="350" height="24" as="geometry" />
        </mxCell>
        <mxCell id="L57KMNoLwt6aIxZQUkGj-0" value="_chk_num_inst : bool" style="text;align=left;verticalAlign=top;spacingLeft=4;spacingRight=4;overflow=hidden;rotatable=0;points=[[0,0.5],[1,0.5]];portConstraint=eastwest;" parent="4use4ZCXdNiZSNTW99xv-1" vertex="1">
          <mxGeometry y="189" width="350" height="24" as="geometry" />
        </mxCell>
        <mxCell id="7JkVl93vQoOUYRVFK4Rs-0" value="changes : dict[Change]" style="text;align=left;verticalAlign=top;spacingLeft=4;spacingRight=4;overflow=hidden;rotatable=0;points=[[0,0.5],[1,0.5]];portConstraint=eastwest;fontStyle=1" parent="4use4ZCXdNiZSNTW99xv-1" vertex="1">
          <mxGeometry y="213" width="350" height="26" as="geometry" />
        </mxCell>
        <mxCell id="4use4ZCXdNiZSNTW99xv-5" value="" style="line;html=1;strokeWidth=1;align=center;verticalAlign=top;spacingTop=-1;spacingLeft=3;spacingRight=3;rotatable=0;labelPosition=right;points=[];portConstraint=eastwest;rounded=0;shadow=1;strokeColor=#6c8ebf;swimlaneFillColor=#ffffff;fontFamily=Helvetica;fontSize=12;fontColor=default;fontStyle=3;fillColor=#dae8fc;gradientColor=#ffffff;" parent="4use4ZCXdNiZSNTW99xv-1" vertex="1">
          <mxGeometry y="239" width="350" height="8" as="geometry" />
        </mxCell>
        <mxCell id="4use4ZCXdNiZSNTW99xv-6" value="__init__( p_name : str = None,&#xa;               p_range_max=MLTask.C_RANGE_THREAD,&#xa;               p_ada : bool = True,&#xa;               p_duplicate_data : bool = False&#xa;               p_visualize : bool = False,&#xa;               p_logging = Log.C_LOG_ALL,&#xa;               p_change_buffer_size : int = 100,&#xa;               p_thrs_inst : int = 0,&#xa;               **p_kwargs )" style="text;align=left;verticalAlign=top;spacingLeft=4;spacingRight=4;overflow=hidden;rotatable=0;points=[[0,0.5],[1,0.5]];portConstraint=eastwest;fontStyle=1" parent="4use4ZCXdNiZSNTW99xv-1" vertex="1">
          <mxGeometry y="247" width="350" height="141" as="geometry" />
        </mxCell>
        <mxCell id="N38WU9mJ-Era6qwWuLtT-0" value="_get_next_change_id()" style="text;align=left;verticalAlign=top;spacingLeft=4;spacingRight=4;overflow=hidden;rotatable=0;points=[[0,0.5],[1,0.5]];portConstraint=eastwest;shadow=1;" parent="4use4ZCXdNiZSNTW99xv-1" vertex="1">
          <mxGeometry y="388" width="350" height="30" as="geometry" />
        </mxCell>
        <mxCell id="oLJumqx1HHhM9YScGNT0-2" value="_buffer_change( p_change : Change )" style="text;align=left;verticalAlign=top;spacingLeft=4;spacingRight=4;overflow=hidden;rotatable=0;points=[[0,0.5],[1,0.5]];portConstraint=eastwest;shadow=1;" parent="4use4ZCXdNiZSNTW99xv-1" vertex="1">
          <mxGeometry y="418" width="350" height="30" as="geometry" />
        </mxCell>
        <mxCell id="oLJumqx1HHhM9YScGNT0-3" value="_remove_change( p_change : Change )" style="text;align=left;verticalAlign=top;spacingLeft=4;spacingRight=4;overflow=hidden;rotatable=0;points=[[0,0.5],[1,0.5]];portConstraint=eastwest;shadow=1;" parent="4use4ZCXdNiZSNTW99xv-1" vertex="1">
          <mxGeometry y="448" width="350" height="30" as="geometry" />
        </mxCell>
        <mxCell id="oLJumqx1HHhM9YScGNT0-4" value="_raise_change_event( p_change :  Change, &#xa;                                       p_inst : Instance,&#xa;                                       p_buffer : bool = True )" style="text;align=left;verticalAlign=top;spacingLeft=4;spacingRight=4;overflow=hidden;rotatable=0;points=[[0,0.5],[1,0.5]];portConstraint=eastwest;shadow=1;fontStyle=1" parent="4use4ZCXdNiZSNTW99xv-1" vertex="1">
          <mxGeometry y="478" width="350" height="56" as="geometry" />
        </mxCell>
        <mxCell id="azBydEVot9yI6jtSICJJ-4" value="_detect( p_inst : Instance, **p_kwargs )" style="text;align=left;verticalAlign=top;spacingLeft=4;spacingRight=4;overflow=hidden;rotatable=0;points=[[0,0.5],[1,0.5]];portConstraint=eastwest;shadow=1;fontColor=#0000FF;" parent="4use4ZCXdNiZSNTW99xv-1" vertex="1">
          <mxGeometry y="534" width="350" height="30" as="geometry" />
        </mxCell>
        <mxCell id="azBydEVot9yI6jtSICJJ-5" value="_triage( p_change : Change, **p_kwargs ) -&gt; bool" style="text;align=left;verticalAlign=top;spacingLeft=4;spacingRight=4;overflow=hidden;rotatable=0;points=[[0,0.5],[1,0.5]];portConstraint=eastwest;shadow=1;fontColor=#0000FF;" parent="4use4ZCXdNiZSNTW99xv-1" vertex="1">
          <mxGeometry y="564" width="350" height="30" as="geometry" />
        </mxCell>
        <mxCell id="azBydEVot9yI6jtSICJJ-3" value="_run( p_inst : InstDict )" style="text;align=left;verticalAlign=top;spacingLeft=4;spacingRight=4;overflow=hidden;rotatable=0;points=[[0,0.5],[1,0.5]];portConstraint=eastwest;shadow=1;fontColor=default;" parent="4use4ZCXdNiZSNTW99xv-1" vertex="1">
          <mxGeometry y="594" width="350" height="30" as="geometry" />
        </mxCell>
        <mxCell id="oLJumqx1HHhM9YScGNT0-5" value="init_plot( p_figure: Figure = None,&#xa;               p_plot_settings: PlotSettings = None )" style="text;align=left;verticalAlign=top;spacingLeft=4;spacingRight=4;overflow=hidden;rotatable=0;points=[[0,0.5],[1,0.5]];portConstraint=eastwest;shadow=1;fontStyle=0" parent="4use4ZCXdNiZSNTW99xv-1" vertex="1">
          <mxGeometry y="624" width="350" height="40" as="geometry" />
        </mxCell>
        <mxCell id="oLJumqx1HHhM9YScGNT0-6" value="update_plot( p_instances : InstDict = None, **p_kwargs )" style="text;align=left;verticalAlign=top;spacingLeft=4;spacingRight=4;overflow=hidden;rotatable=0;points=[[0,0.5],[1,0.5]];portConstraint=eastwest;shadow=1;fontStyle=0" parent="4use4ZCXdNiZSNTW99xv-1" vertex="1">
          <mxGeometry y="664" width="350" height="29" as="geometry" />
        </mxCell>
        <mxCell id="oLJumqx1HHhM9YScGNT0-7" value="remove_plot( p_refresh: bool = True )" style="text;align=left;verticalAlign=top;spacingLeft=4;spacingRight=4;overflow=hidden;rotatable=0;points=[[0,0.5],[1,0.5]];portConstraint=eastwest;shadow=1;fontStyle=0" parent="4use4ZCXdNiZSNTW99xv-1" vertex="1">
          <mxGeometry y="693" width="350" height="30" as="geometry" />
        </mxCell>
        <mxCell id="hOcUKRqpv3udX4BvXm5B-0" value="renormalize( p_normalizer: Normalizer ) " style="text;align=left;verticalAlign=top;spacingLeft=4;spacingRight=4;overflow=hidden;rotatable=0;points=[[0,0.5],[1,0.5]];portConstraint=eastwest;shadow=1;fontStyle=0" parent="4use4ZCXdNiZSNTW99xv-1" vertex="1">
          <mxGeometry y="723" width="350" height="30" as="geometry" />
        </mxCell>
        <mxCell id="4use4ZCXdNiZSNTW99xv-16" value="Change&#xa;(bf.various.Id, bf.events.Event, bf.plot.Plottable,&#xa;bf.math.normalizers.Renomalizable)" style="swimlane;fontStyle=1;align=center;verticalAlign=top;childLayout=stackLayout;horizontal=1;startSize=52;horizontalStack=0;resizeParent=1;resizeLast=0;collapsible=1;marginBottom=0;rounded=0;shadow=1;strokeWidth=1;fillColor=#dae8fc;strokeColor=#6c8ebf;swimlaneFillColor=#ffffff;fontFamily=Helvetica;fontSize=12;gradientColor=#FFFFFF;" parent="WIyWlLk6GJQsqaUBKTNV-1" vertex="1">
          <mxGeometry x="1060" y="80" width="350" height="460" as="geometry">
            <mxRectangle x="230" y="140" width="160" height="26" as="alternateBounds" />
          </mxGeometry>
        </mxCell>
        <mxCell id="oLJumqx1HHhM9YScGNT0-23" value="C_PLOT_ACTIVE           = False" style="text;align=left;verticalAlign=top;spacingLeft=4;spacingRight=4;overflow=hidden;rotatable=0;points=[[0,0.5],[1,0.5]];portConstraint=eastwest;" parent="4use4ZCXdNiZSNTW99xv-16" vertex="1">
          <mxGeometry y="52" width="350" height="26" as="geometry" />
        </mxCell>
        <mxCell id="oLJumqx1HHhM9YScGNT0-24" value="C_PLOT_STANDALONE = False" style="text;align=left;verticalAlign=top;spacingLeft=4;spacingRight=4;overflow=hidden;rotatable=0;points=[[0,0.5],[1,0.5]];portConstraint=eastwest;" parent="4use4ZCXdNiZSNTW99xv-16" vertex="1">
          <mxGeometry y="78" width="350" height="26" as="geometry" />
        </mxCell>
        <mxCell id="oLJumqx1HHhM9YScGNT0-25" value="C_PLOT_VALID_VIEWS = &#xa;          [ PlotSettings.C_VIEW_2D, &#xa;            PlotSettings.C_VIEW_3D, &#xa;            PlotSettings.C_VIEW_ND ]" style="text;align=left;verticalAlign=top;spacingLeft=4;spacingRight=4;overflow=hidden;rotatable=0;points=[[0,0.5],[1,0.5]];portConstraint=eastwest;" parent="4use4ZCXdNiZSNTW99xv-16" vertex="1">
          <mxGeometry y="104" width="350" height="67" as="geometry" />
        </mxCell>
        <mxCell id="oLJumqx1HHhM9YScGNT0-26" value="C_PLOT_DEFAULT_VIEW = &#xa;            PlotSettings.C_VIEW_ND" style="text;align=left;verticalAlign=top;spacingLeft=4;spacingRight=4;overflow=hidden;rotatable=0;points=[[0,0.5],[1,0.5]];portConstraint=eastwest;" parent="4use4ZCXdNiZSNTW99xv-16" vertex="1">
          <mxGeometry y="171" width="350" height="37" as="geometry" />
        </mxCell>
        <mxCell id="K-uiR6WVb6SvZu_kqw6H-1" value="event_id : str" style="text;align=left;verticalAlign=top;spacingLeft=4;spacingRight=4;overflow=hidden;rotatable=0;points=[[0,0.5],[1,0.5]];portConstraint=eastwest;fontStyle=1" parent="4use4ZCXdNiZSNTW99xv-16" vertex="1">
          <mxGeometry y="208" width="350" height="26" as="geometry" />
        </mxCell>
        <mxCell id="azBydEVot9yI6jtSICJJ-0" value="status : bool" style="text;align=left;verticalAlign=top;spacingLeft=4;spacingRight=4;overflow=hidden;rotatable=0;points=[[0,0.5],[1,0.5]];portConstraint=eastwest;fontStyle=1" parent="4use4ZCXdNiZSNTW99xv-16" vertex="1">
          <mxGeometry y="234" width="350" height="26" as="geometry" />
        </mxCell>
        <mxCell id="4use4ZCXdNiZSNTW99xv-20" value="" style="line;html=1;strokeWidth=1;align=center;verticalAlign=top;spacingTop=-1;spacingLeft=3;spacingRight=3;rotatable=0;labelPosition=right;points=[];portConstraint=eastwest;rounded=0;shadow=1;strokeColor=#6c8ebf;swimlaneFillColor=#ffffff;fontFamily=Helvetica;fontSize=12;fontColor=default;fontStyle=1;fillColor=#dae8fc;gradientColor=#ffffff;" parent="4use4ZCXdNiZSNTW99xv-16" vertex="1">
          <mxGeometry y="260" width="350" height="8" as="geometry" />
        </mxCell>
        <mxCell id="4use4ZCXdNiZSNTW99xv-21" value="__init__( p_id : int = -1,&#xa;                p_status : bool = True,&#xa;                p_tstamp : TStampType = None,&#xa;                p_visualise : bool = False,&#xa;                p_raising_object : object = None,&#xa;                **p_kwargs )" style="text;align=left;verticalAlign=top;spacingLeft=4;spacingRight=4;overflow=hidden;rotatable=0;points=[[0,0.5],[1,0.5]];portConstraint=eastwest;fontStyle=1" parent="4use4ZCXdNiZSNTW99xv-16" vertex="1">
          <mxGeometry y="268" width="350" height="97" as="geometry" />
        </mxCell>
        <mxCell id="IegvnzxpX1ZSIK_RxJHY-0" value="@classmethod&#xa;get_event_id( p_status : bool ) -&gt; str" style="text;align=left;verticalAlign=top;spacingLeft=4;spacingRight=4;overflow=hidden;rotatable=0;points=[[0,0.5],[1,0.5]];portConstraint=eastwest;fontStyle=1" parent="4use4ZCXdNiZSNTW99xv-16" vertex="1">
          <mxGeometry y="365" width="350" height="38" as="geometry" />
        </mxCell>
        <mxCell id="azBydEVot9yI6jtSICJJ-2" value="_get_status() -&gt; bool" style="text;align=left;verticalAlign=top;spacingLeft=4;spacingRight=4;overflow=hidden;rotatable=0;points=[[0,0.5],[1,0.5]];portConstraint=eastwest;fontStyle=0" parent="4use4ZCXdNiZSNTW99xv-16" vertex="1">
          <mxGeometry y="403" width="350" height="26" as="geometry" />
        </mxCell>
        <mxCell id="azBydEVot9yI6jtSICJJ-1" value="_get_event_id() -&gt; str" style="text;align=left;verticalAlign=top;spacingLeft=4;spacingRight=4;overflow=hidden;rotatable=0;points=[[0,0.5],[1,0.5]];portConstraint=eastwest;fontStyle=0" parent="4use4ZCXdNiZSNTW99xv-16" vertex="1">
          <mxGeometry y="429" width="350" height="26" as="geometry" />
        </mxCell>
        <mxCell id="2PxFUsdKY2rTfC8V-BGI-24" style="edgeStyle=orthogonalEdgeStyle;rounded=0;orthogonalLoop=1;jettySize=auto;html=1;endArrow=block;endFill=1;" parent="WIyWlLk6GJQsqaUBKTNV-1" source="2PxFUsdKY2rTfC8V-BGI-0" target="2PxFUsdKY2rTfC8V-BGI-11" edge="1">
          <mxGeometry relative="1" as="geometry" />
        </mxCell>
        <mxCell id="2PxFUsdKY2rTfC8V-BGI-28" style="edgeStyle=orthogonalEdgeStyle;rounded=0;orthogonalLoop=1;jettySize=auto;html=1;endArrow=block;endFill=0;" parent="WIyWlLk6GJQsqaUBKTNV-1" source="2PxFUsdKY2rTfC8V-BGI-0" target="4use4ZCXdNiZSNTW99xv-1" edge="1">
          <mxGeometry relative="1" as="geometry" />
        </mxCell>
        <mxCell id="2PxFUsdKY2rTfC8V-BGI-0" value="AnomalyDetector&#xa;(ChangeDetector)" style="swimlane;align=center;verticalAlign=top;childLayout=stackLayout;horizontal=1;startSize=41;horizontalStack=0;resizeParent=1;resizeLast=0;collapsible=1;marginBottom=0;rounded=0;shadow=1;strokeWidth=1;fillColor=#dae8fc;strokeColor=#6c8ebf;swimlaneFillColor=#ffffff;gradientColor=#FFFFFF;" parent="WIyWlLk6GJQsqaUBKTNV-1" vertex="1">
          <mxGeometry x="630" y="929" width="350" height="444" as="geometry">
            <mxRectangle x="230" y="140" width="160" height="26" as="alternateBounds" />
          </mxGeometry>
        </mxCell>
        <mxCell id="2PxFUsdKY2rTfC8V-BGI-1" value="C_TYPE = &#39;Anomaly Detector&#39;" style="text;align=left;verticalAlign=top;spacingLeft=4;spacingRight=4;overflow=hidden;rotatable=0;points=[[0,0.5],[1,0.5]];portConstraint=eastwest;fontStyle=0;fontColor=default;" parent="2PxFUsdKY2rTfC8V-BGI-0" vertex="1">
          <mxGeometry y="41" width="350" height="26" as="geometry" />
        </mxCell>
        <mxCell id="2PxFUsdKY2rTfC8V-BGI-2" value="anomalies : dict[Anomaly]" style="text;align=left;verticalAlign=top;spacingLeft=4;spacingRight=4;overflow=hidden;rotatable=0;points=[[0,0.5],[1,0.5]];portConstraint=eastwest;fontStyle=1" parent="2PxFUsdKY2rTfC8V-BGI-0" vertex="1">
          <mxGeometry y="67" width="350" height="26" as="geometry" />
        </mxCell>
        <mxCell id="2PxFUsdKY2rTfC8V-BGI-3" value="" style="line;html=1;strokeWidth=1;align=center;verticalAlign=top;spacingTop=-1;spacingLeft=3;spacingRight=3;rotatable=0;labelPosition=right;points=[];portConstraint=eastwest;rounded=0;shadow=1;strokeColor=#6c8ebf;swimlaneFillColor=#ffffff;fontFamily=Helvetica;fontSize=12;fontColor=default;fontStyle=3;fillColor=#dae8fc;gradientColor=#ffffff;" parent="2PxFUsdKY2rTfC8V-BGI-0" vertex="1">
          <mxGeometry y="93" width="350" height="8" as="geometry" />
        </mxCell>
        <mxCell id="2PxFUsdKY2rTfC8V-BGI-4" value="__init__( p_name : str = None,&#xa;               p_range_max=MLTask.C_RANGE_THREAD,&#xa;               p_ada : bool = True,&#xa;               p_duplicate_data : bool = False&#xa;               p_visualize : bool = False,&#xa;               p_logging = Log.C_LOG_ALL,&#xa;               p_anomaly_buffer_size : int = 100,&#xa;               p_thrs_inst : int = 0,&#xa;               **p_kwargs )" style="text;align=left;verticalAlign=top;spacingLeft=4;spacingRight=4;overflow=hidden;rotatable=0;points=[[0,0.5],[1,0.5]];portConstraint=eastwest;fontStyle=1" parent="2PxFUsdKY2rTfC8V-BGI-0" vertex="1">
          <mxGeometry y="101" width="350" height="139" as="geometry" />
        </mxCell>
        <mxCell id="2PxFUsdKY2rTfC8V-BGI-5" value="_get_next_anomaly_id() -&gt; int" style="text;align=left;verticalAlign=top;spacingLeft=4;spacingRight=4;overflow=hidden;rotatable=0;points=[[0,0.5],[1,0.5]];portConstraint=eastwest;shadow=1;" parent="2PxFUsdKY2rTfC8V-BGI-0" vertex="1">
          <mxGeometry y="240" width="350" height="30" as="geometry" />
        </mxCell>
        <mxCell id="2PxFUsdKY2rTfC8V-BGI-6" value="_buffer_anomaly(p_anomaly : Anomaly)" style="text;align=left;verticalAlign=top;spacingLeft=4;spacingRight=4;overflow=hidden;rotatable=0;points=[[0,0.5],[1,0.5]];portConstraint=eastwest;shadow=1;" parent="2PxFUsdKY2rTfC8V-BGI-0" vertex="1">
          <mxGeometry y="270" width="350" height="30" as="geometry" />
        </mxCell>
        <mxCell id="2PxFUsdKY2rTfC8V-BGI-7" value="_remove_anomaly(p_anomaly : Anomaly)" style="text;align=left;verticalAlign=top;spacingLeft=4;spacingRight=4;overflow=hidden;rotatable=0;points=[[0,0.5],[1,0.5]];portConstraint=eastwest;shadow=1;" parent="2PxFUsdKY2rTfC8V-BGI-0" vertex="1">
          <mxGeometry y="300" width="350" height="30" as="geometry" />
        </mxCell>
        <mxCell id="2PxFUsdKY2rTfC8V-BGI-8" value="_raise_anomaly_event( p_anomaly : Anomaly,&#xa;                                         p_instance : Instance, &#xa;                                         p_buffer : bool = True )" style="text;align=left;verticalAlign=top;spacingLeft=4;spacingRight=4;overflow=hidden;rotatable=0;points=[[0,0.5],[1,0.5]];portConstraint=eastwest;shadow=1;fontStyle=1" parent="2PxFUsdKY2rTfC8V-BGI-0" vertex="1">
          <mxGeometry y="330" width="350" height="54" as="geometry" />
        </mxCell>
        <mxCell id="2PxFUsdKY2rTfC8V-BGI-9" value="_triage( p_change : Change, **p_kwargs ) -&gt; bool" style="text;align=left;verticalAlign=top;spacingLeft=4;spacingRight=4;overflow=hidden;rotatable=0;points=[[0,0.5],[1,0.5]];portConstraint=eastwest;shadow=1;" parent="2PxFUsdKY2rTfC8V-BGI-0" vertex="1">
          <mxGeometry y="384" width="350" height="30" as="geometry" />
        </mxCell>
        <mxCell id="2PxFUsdKY2rTfC8V-BGI-10" value="_triage_anomaly( p_anomaly : Anomaly, **p_kwargs ) -&gt; bool" style="text;align=left;verticalAlign=top;spacingLeft=4;spacingRight=4;overflow=hidden;rotatable=0;points=[[0,0.5],[1,0.5]];portConstraint=eastwest;shadow=1;fontColor=#0000FF;" parent="2PxFUsdKY2rTfC8V-BGI-0" vertex="1">
          <mxGeometry y="414" width="350" height="30" as="geometry" />
        </mxCell>
        <mxCell id="2PxFUsdKY2rTfC8V-BGI-32" style="edgeStyle=orthogonalEdgeStyle;rounded=0;orthogonalLoop=1;jettySize=auto;html=1;endArrow=block;endFill=0;entryX=0;entryY=0.5;entryDx=0;entryDy=0;exitX=0.5;exitY=0;exitDx=0;exitDy=0;" parent="WIyWlLk6GJQsqaUBKTNV-1" source="2PxFUsdKY2rTfC8V-BGI-11" target="azBydEVot9yI6jtSICJJ-2" edge="1">
          <mxGeometry relative="1" as="geometry">
            <Array as="points">
              <mxPoint x="375" y="496" />
            </Array>
          </mxGeometry>
        </mxCell>
        <mxCell id="2PxFUsdKY2rTfC8V-BGI-11" value="Anomaly &#xa;(Change)" style="swimlane;fontStyle=1;align=center;verticalAlign=top;childLayout=stackLayout;horizontal=1;startSize=46;horizontalStack=0;resizeParent=1;resizeLast=0;collapsible=1;marginBottom=0;rounded=0;shadow=1;strokeWidth=1;fillColor=#dae8fc;strokeColor=#6c8ebf;swimlaneFillColor=#ffffff;fontFamily=Helvetica;fontSize=12;gradientColor=#FFFFFF;" parent="WIyWlLk6GJQsqaUBKTNV-1" vertex="1">
          <mxGeometry x="200" y="927" width="350" height="56" as="geometry">
            <mxRectangle x="230" y="140" width="160" height="26" as="alternateBounds" />
          </mxGeometry>
        </mxCell>
        <mxCell id="2PxFUsdKY2rTfC8V-BGI-27" style="edgeStyle=orthogonalEdgeStyle;rounded=0;orthogonalLoop=1;jettySize=auto;html=1;endArrow=block;endFill=1;" parent="WIyWlLk6GJQsqaUBKTNV-1" source="2PxFUsdKY2rTfC8V-BGI-12" target="2PxFUsdKY2rTfC8V-BGI-23" edge="1">
          <mxGeometry relative="1" as="geometry" />
        </mxCell>
        <mxCell id="2PxFUsdKY2rTfC8V-BGI-29" style="edgeStyle=orthogonalEdgeStyle;rounded=0;orthogonalLoop=1;jettySize=auto;html=1;endArrow=block;endFill=0;" parent="WIyWlLk6GJQsqaUBKTNV-1" source="2PxFUsdKY2rTfC8V-BGI-12" target="4use4ZCXdNiZSNTW99xv-1" edge="1">
          <mxGeometry relative="1" as="geometry">
            <Array as="points">
              <mxPoint x="1440" y="1151" />
              <mxPoint x="1440" y="997" />
            </Array>
          </mxGeometry>
        </mxCell>
        <mxCell id="2PxFUsdKY2rTfC8V-BGI-12" value="DriftDetector&#xa;(ChangeDetector)" style="swimlane;align=center;verticalAlign=top;childLayout=stackLayout;horizontal=1;startSize=41;horizontalStack=0;resizeParent=1;resizeLast=0;collapsible=1;marginBottom=0;rounded=0;shadow=1;strokeWidth=1;fillColor=#dae8fc;strokeColor=#6c8ebf;swimlaneFillColor=#ffffff;gradientColor=#FFFFFF;" parent="WIyWlLk6GJQsqaUBKTNV-1" vertex="1">
          <mxGeometry x="1490" y="929" width="350" height="444" as="geometry">
            <mxRectangle x="230" y="140" width="160" height="26" as="alternateBounds" />
          </mxGeometry>
        </mxCell>
        <mxCell id="2PxFUsdKY2rTfC8V-BGI-13" value="C_TYPE  = &#39;Drift Detector&#39;" style="text;align=left;verticalAlign=top;spacingLeft=4;spacingRight=4;overflow=hidden;rotatable=0;points=[[0,0.5],[1,0.5]];portConstraint=eastwest;" parent="2PxFUsdKY2rTfC8V-BGI-12" vertex="1">
          <mxGeometry y="41" width="350" height="24" as="geometry" />
        </mxCell>
        <mxCell id="2PxFUsdKY2rTfC8V-BGI-14" value="drifts : Dict[Drift]" style="text;align=left;verticalAlign=top;spacingLeft=4;spacingRight=4;overflow=hidden;rotatable=0;points=[[0,0.5],[1,0.5]];portConstraint=eastwest;fontStyle=1" parent="2PxFUsdKY2rTfC8V-BGI-12" vertex="1">
          <mxGeometry y="65" width="350" height="26" as="geometry" />
        </mxCell>
        <mxCell id="2PxFUsdKY2rTfC8V-BGI-15" value="" style="line;html=1;strokeWidth=1;align=center;verticalAlign=top;spacingTop=-1;spacingLeft=3;spacingRight=3;rotatable=0;labelPosition=right;points=[];portConstraint=eastwest;rounded=0;shadow=1;strokeColor=#6c8ebf;swimlaneFillColor=#ffffff;fontFamily=Helvetica;fontSize=12;fontColor=default;fontStyle=3;fillColor=#dae8fc;gradientColor=#ffffff;" parent="2PxFUsdKY2rTfC8V-BGI-12" vertex="1">
          <mxGeometry y="91" width="350" height="8" as="geometry" />
        </mxCell>
        <mxCell id="2PxFUsdKY2rTfC8V-BGI-16" value="__init__( p_name : str = None,&#xa;               p_range_max=OAStreamTask.C_RANGE_THREAD,&#xa;               p_ada : bool = True,&#xa;               p_duplicate_data : bool = False&#xa;               p_visualize : bool = False,&#xa;               p_logging = Log.C_LOG_ALL,&#xa;               p_drift_buffer_size : int = 100,&#xa;               p_thrs_inst : int = 0,&#xa;               **p_kwargs )" style="text;align=left;verticalAlign=top;spacingLeft=4;spacingRight=4;overflow=hidden;rotatable=0;points=[[0,0.5],[1,0.5]];portConstraint=eastwest;fontStyle=1" parent="2PxFUsdKY2rTfC8V-BGI-12" vertex="1">
          <mxGeometry y="99" width="350" height="141" as="geometry" />
        </mxCell>
        <mxCell id="2PxFUsdKY2rTfC8V-BGI-17" value="_get_next_drift_id() -&gt; int" style="text;align=left;verticalAlign=top;spacingLeft=4;spacingRight=4;overflow=hidden;rotatable=0;points=[[0,0.5],[1,0.5]];portConstraint=eastwest;shadow=1;" parent="2PxFUsdKY2rTfC8V-BGI-12" vertex="1">
          <mxGeometry y="240" width="350" height="30" as="geometry" />
        </mxCell>
        <mxCell id="2PxFUsdKY2rTfC8V-BGI-18" value="_buffer_drift( p_drift : Drift ) " style="text;align=left;verticalAlign=top;spacingLeft=4;spacingRight=4;overflow=hidden;rotatable=0;points=[[0,0.5],[1,0.5]];portConstraint=eastwest;shadow=1;" parent="2PxFUsdKY2rTfC8V-BGI-12" vertex="1">
          <mxGeometry y="270" width="350" height="30" as="geometry" />
        </mxCell>
        <mxCell id="2PxFUsdKY2rTfC8V-BGI-19" value="_remove_drift( p_drift : Drift )" style="text;align=left;verticalAlign=top;spacingLeft=4;spacingRight=4;overflow=hidden;rotatable=0;points=[[0,0.5],[1,0.5]];portConstraint=eastwest;shadow=1;" parent="2PxFUsdKY2rTfC8V-BGI-12" vertex="1">
          <mxGeometry y="300" width="350" height="30" as="geometry" />
        </mxCell>
        <mxCell id="2PxFUsdKY2rTfC8V-BGI-30" value="_raise_drift_event( p_drift : Drift,&#xa;                                 p_instance : Instance, &#xa;                                 p_buffer : bool = True )" style="text;align=left;verticalAlign=top;spacingLeft=4;spacingRight=4;overflow=hidden;rotatable=0;points=[[0,0.5],[1,0.5]];portConstraint=eastwest;shadow=1;fontStyle=1" parent="2PxFUsdKY2rTfC8V-BGI-12" vertex="1">
          <mxGeometry y="330" width="350" height="54" as="geometry" />
        </mxCell>
        <mxCell id="2PxFUsdKY2rTfC8V-BGI-21" value="_triage( p_change : Change, **p_kwargs ) -&gt; bool" style="text;align=left;verticalAlign=top;spacingLeft=4;spacingRight=4;overflow=hidden;rotatable=0;points=[[0,0.5],[1,0.5]];portConstraint=eastwest;shadow=1;" parent="2PxFUsdKY2rTfC8V-BGI-12" vertex="1">
          <mxGeometry y="384" width="350" height="30" as="geometry" />
        </mxCell>
        <mxCell id="2PxFUsdKY2rTfC8V-BGI-22" value="_triage_drift( p_drift : Drift, **p_kwargs ) -&gt; bool" style="text;align=left;verticalAlign=top;spacingLeft=4;spacingRight=4;overflow=hidden;rotatable=0;points=[[0,0.5],[1,0.5]];portConstraint=eastwest;shadow=1;fontColor=#0000FF;" parent="2PxFUsdKY2rTfC8V-BGI-12" vertex="1">
          <mxGeometry y="414" width="350" height="30" as="geometry" />
        </mxCell>
        <mxCell id="2PxFUsdKY2rTfC8V-BGI-92" style="edgeStyle=orthogonalEdgeStyle;rounded=0;orthogonalLoop=1;jettySize=auto;html=1;entryX=1;entryY=0.5;entryDx=0;entryDy=0;endArrow=block;endFill=0;" parent="WIyWlLk6GJQsqaUBKTNV-1" source="2PxFUsdKY2rTfC8V-BGI-23" target="azBydEVot9yI6jtSICJJ-2" edge="1">
          <mxGeometry relative="1" as="geometry" />
        </mxCell>
        <mxCell id="2PxFUsdKY2rTfC8V-BGI-23" value="Drift&#xa;(Change)" style="swimlane;fontStyle=1;align=center;verticalAlign=top;childLayout=stackLayout;horizontal=1;startSize=40;horizontalStack=0;resizeParent=1;resizeLast=0;collapsible=1;marginBottom=0;rounded=0;shadow=1;strokeWidth=1;fillColor=#dae8fc;strokeColor=#6c8ebf;swimlaneFillColor=#ffffff;fontFamily=Helvetica;fontSize=12;gradientColor=#FFFFFF;" parent="WIyWlLk6GJQsqaUBKTNV-1" vertex="1">
          <mxGeometry x="1920" y="930" width="350" height="53" as="geometry">
            <mxRectangle x="230" y="140" width="160" height="26" as="alternateBounds" />
          </mxGeometry>
        </mxCell>
        <mxCell id="2PxFUsdKY2rTfC8V-BGI-78" style="edgeStyle=orthogonalEdgeStyle;rounded=0;orthogonalLoop=1;jettySize=auto;html=1;endArrow=block;endFill=0;" parent="WIyWlLk6GJQsqaUBKTNV-1" source="2PxFUsdKY2rTfC8V-BGI-69" target="2PxFUsdKY2rTfC8V-BGI-11" edge="1">
          <mxGeometry relative="1" as="geometry" />
        </mxCell>
        <mxCell id="2PxFUsdKY2rTfC8V-BGI-69" value="AnomalyIB (Anomaly)" style="swimlane;fontStyle=1;align=center;verticalAlign=top;childLayout=stackLayout;horizontal=1;startSize=26;horizontalStack=0;resizeParent=1;resizeLast=0;collapsible=1;marginBottom=0;rounded=0;shadow=1;strokeWidth=3;fillColor=#dae8fc;strokeColor=#6c8ebf;swimlaneFillColor=#ffffff;fontFamily=Helvetica;fontSize=12;gradientColor=#FFFFFF;" parent="WIyWlLk6GJQsqaUBKTNV-1" vertex="1">
          <mxGeometry x="200" y="1053" width="350" height="170" as="geometry">
            <mxRectangle x="230" y="140" width="160" height="26" as="alternateBounds" />
          </mxGeometry>
        </mxCell>
        <mxCell id="2PxFUsdKY2rTfC8V-BGI-70" value="instances : list[Instance]" style="text;align=left;verticalAlign=top;spacingLeft=4;spacingRight=4;overflow=hidden;rotatable=0;points=[[0,0.5],[1,0.5]];portConstraint=eastwest;fontStyle=1" parent="2PxFUsdKY2rTfC8V-BGI-69" vertex="1">
          <mxGeometry y="26" width="350" height="26" as="geometry" />
        </mxCell>
        <mxCell id="2PxFUsdKY2rTfC8V-BGI-71" value="" style="line;html=1;strokeWidth=1;align=center;verticalAlign=top;spacingTop=-1;spacingLeft=3;spacingRight=3;rotatable=0;labelPosition=right;points=[];portConstraint=eastwest;rounded=0;shadow=1;strokeColor=#6c8ebf;swimlaneFillColor=#ffffff;fontFamily=Helvetica;fontSize=12;fontColor=default;fontStyle=1;fillColor=#dae8fc;gradientColor=#ffffff;" parent="2PxFUsdKY2rTfC8V-BGI-69" vertex="1">
          <mxGeometry y="52" width="350" height="8" as="geometry" />
        </mxCell>
        <mxCell id="2PxFUsdKY2rTfC8V-BGI-72" value="__init__( p_id = -1,&#xa;               p_status : bool = True,&#xa;               p_tstamp : TStampType = None,&#xa;               p_visualize : bool = False,&#xa;               p_raising_object : object = None,&#xa;               p_instances : list[Instance] = [],&#xa;               **p_kwargs )" style="text;align=left;verticalAlign=top;spacingLeft=4;spacingRight=4;overflow=hidden;rotatable=0;points=[[0,0.5],[1,0.5]];portConstraint=eastwest;fontStyle=1" parent="2PxFUsdKY2rTfC8V-BGI-69" vertex="1">
          <mxGeometry y="60" width="350" height="110" as="geometry" />
        </mxCell>
        <mxCell id="2PxFUsdKY2rTfC8V-BGI-73" value="Subtype for instance-based anomalies" style="rounded=0;whiteSpace=wrap;html=1;fillColor=#fff2cc;strokeColor=#d6b656;shadow=1;align=left;fontStyle=1;verticalAlign=top;" parent="WIyWlLk6GJQsqaUBKTNV-1" vertex="1">
          <mxGeometry x="120" y="1010" width="100" height="51" as="geometry" />
        </mxCell>
        <mxCell id="2PxFUsdKY2rTfC8V-BGI-77" style="edgeStyle=orthogonalEdgeStyle;rounded=0;orthogonalLoop=1;jettySize=auto;html=1;endArrow=block;endFill=1;" parent="WIyWlLk6GJQsqaUBKTNV-1" source="2PxFUsdKY2rTfC8V-BGI-74" target="2PxFUsdKY2rTfC8V-BGI-69" edge="1">
          <mxGeometry relative="1" as="geometry" />
        </mxCell>
        <mxCell id="2PxFUsdKY2rTfC8V-BGI-79" style="edgeStyle=orthogonalEdgeStyle;rounded=0;orthogonalLoop=1;jettySize=auto;html=1;endArrow=block;endFill=0;entryX=0;entryY=0.5;entryDx=0;entryDy=0;" parent="WIyWlLk6GJQsqaUBKTNV-1" source="2PxFUsdKY2rTfC8V-BGI-74" target="2PxFUsdKY2rTfC8V-BGI-9" edge="1">
          <mxGeometry relative="1" as="geometry" />
        </mxCell>
        <mxCell id="2PxFUsdKY2rTfC8V-BGI-74" value="AnomalyDetectorIB&#xa;(AnomalyDetector)" style="swimlane;fontStyle=1;align=center;verticalAlign=top;childLayout=stackLayout;horizontal=1;startSize=42;horizontalStack=0;resizeParent=1;resizeLast=0;collapsible=1;marginBottom=0;rounded=0;shadow=1;strokeWidth=3;fillColor=#dae8fc;strokeColor=#6c8ebf;swimlaneFillColor=#ffffff;fontFamily=Helvetica;fontSize=12;gradientColor=#FFFFFF;" parent="WIyWlLk6GJQsqaUBKTNV-1" vertex="1">
          <mxGeometry x="200" y="1289" width="350" height="84" as="geometry">
            <mxRectangle x="230" y="140" width="160" height="26" as="alternateBounds" />
          </mxGeometry>
        </mxCell>
        <mxCell id="2PxFUsdKY2rTfC8V-BGI-75" value="C_TYPE = &#39;Anomaly Detector (IB)&#39;" style="text;align=left;verticalAlign=top;spacingLeft=4;spacingRight=4;overflow=hidden;rotatable=0;points=[[0,0.5],[1,0.5]];portConstraint=eastwest;" parent="2PxFUsdKY2rTfC8V-BGI-74" vertex="1">
          <mxGeometry y="42" width="350" height="28" as="geometry" />
        </mxCell>
        <mxCell id="2PxFUsdKY2rTfC8V-BGI-76" value="" style="line;html=1;strokeWidth=1;align=center;verticalAlign=top;spacingTop=-1;spacingLeft=3;spacingRight=3;rotatable=0;labelPosition=right;points=[];portConstraint=eastwest;rounded=0;shadow=1;strokeColor=#6c8ebf;swimlaneFillColor=#ffffff;fontFamily=Helvetica;fontSize=12;fontColor=default;fontStyle=1;fillColor=#dae8fc;gradientColor=#ffffff;" parent="2PxFUsdKY2rTfC8V-BGI-74" vertex="1">
          <mxGeometry y="70" width="350" height="8" as="geometry" />
        </mxCell>
        <mxCell id="2PxFUsdKY2rTfC8V-BGI-80" style="edgeStyle=orthogonalEdgeStyle;rounded=0;orthogonalLoop=1;jettySize=auto;html=1;endArrow=block;endFill=1;" parent="WIyWlLk6GJQsqaUBKTNV-1" source="2PxFUsdKY2rTfC8V-BGI-81" target="2PxFUsdKY2rTfC8V-BGI-84" edge="1">
          <mxGeometry relative="1" as="geometry" />
        </mxCell>
        <mxCell id="2PxFUsdKY2rTfC8V-BGI-93" style="edgeStyle=orthogonalEdgeStyle;rounded=0;orthogonalLoop=1;jettySize=auto;html=1;endArrow=block;endFill=0;entryX=1;entryY=0.5;entryDx=0;entryDy=0;" parent="WIyWlLk6GJQsqaUBKTNV-1" source="2PxFUsdKY2rTfC8V-BGI-81" target="2PxFUsdKY2rTfC8V-BGI-21" edge="1">
          <mxGeometry relative="1" as="geometry" />
        </mxCell>
        <mxCell id="2PxFUsdKY2rTfC8V-BGI-81" value="DriftDetectorIB&#xa;(DriftDetector)" style="swimlane;align=center;verticalAlign=top;childLayout=stackLayout;horizontal=1;startSize=41;horizontalStack=0;resizeParent=1;resizeLast=0;collapsible=1;marginBottom=0;rounded=0;shadow=1;strokeWidth=3;fillColor=#dae8fc;strokeColor=#6c8ebf;swimlaneFillColor=#ffffff;gradientColor=#FFFFFF;" parent="WIyWlLk6GJQsqaUBKTNV-1" vertex="1">
          <mxGeometry x="1920" y="1293" width="350" height="80" as="geometry">
            <mxRectangle x="230" y="140" width="160" height="26" as="alternateBounds" />
          </mxGeometry>
        </mxCell>
        <mxCell id="2PxFUsdKY2rTfC8V-BGI-82" value="C_TYPE = &#39;Instance-based Drift Detector&#39;" style="text;align=left;verticalAlign=top;spacingLeft=4;spacingRight=4;overflow=hidden;rotatable=0;points=[[0,0.5],[1,0.5]];portConstraint=eastwest;" parent="2PxFUsdKY2rTfC8V-BGI-81" vertex="1">
          <mxGeometry y="41" width="350" height="24" as="geometry" />
        </mxCell>
        <mxCell id="2PxFUsdKY2rTfC8V-BGI-83" value="" style="line;html=1;strokeWidth=1;align=center;verticalAlign=top;spacingTop=-1;spacingLeft=3;spacingRight=3;rotatable=0;labelPosition=right;points=[];portConstraint=eastwest;rounded=0;shadow=1;strokeColor=#6c8ebf;swimlaneFillColor=#ffffff;fontFamily=Helvetica;fontSize=12;fontColor=default;fontStyle=3;fillColor=#dae8fc;gradientColor=#ffffff;" parent="2PxFUsdKY2rTfC8V-BGI-81" vertex="1">
          <mxGeometry y="65" width="350" height="8" as="geometry" />
        </mxCell>
        <mxCell id="2PxFUsdKY2rTfC8V-BGI-91" style="edgeStyle=orthogonalEdgeStyle;rounded=0;orthogonalLoop=1;jettySize=auto;html=1;endArrow=block;endFill=0;" parent="WIyWlLk6GJQsqaUBKTNV-1" source="2PxFUsdKY2rTfC8V-BGI-84" target="2PxFUsdKY2rTfC8V-BGI-23" edge="1">
          <mxGeometry relative="1" as="geometry" />
        </mxCell>
        <mxCell id="2PxFUsdKY2rTfC8V-BGI-84" value="DriftIB&#xa;(Drift)" style="swimlane;fontStyle=1;align=center;verticalAlign=top;childLayout=stackLayout;horizontal=1;startSize=40;horizontalStack=0;resizeParent=1;resizeLast=0;collapsible=1;marginBottom=0;rounded=0;shadow=1;strokeWidth=3;fillColor=#dae8fc;strokeColor=#6c8ebf;swimlaneFillColor=#ffffff;fontFamily=Helvetica;fontSize=12;gradientColor=#FFFFFF;" parent="WIyWlLk6GJQsqaUBKTNV-1" vertex="1">
          <mxGeometry x="1920" y="1043" width="350" height="190" as="geometry">
            <mxRectangle x="230" y="140" width="160" height="26" as="alternateBounds" />
          </mxGeometry>
        </mxCell>
        <mxCell id="2PxFUsdKY2rTfC8V-BGI-85" value="instances : list[Instance]" style="text;align=left;verticalAlign=top;spacingLeft=4;spacingRight=4;overflow=hidden;rotatable=0;points=[[0,0.5],[1,0.5]];portConstraint=eastwest;fontStyle=1" parent="2PxFUsdKY2rTfC8V-BGI-84" vertex="1">
          <mxGeometry y="40" width="350" height="26" as="geometry" />
        </mxCell>
        <mxCell id="2PxFUsdKY2rTfC8V-BGI-86" value="" style="line;html=1;strokeWidth=1;align=center;verticalAlign=top;spacingTop=-1;spacingLeft=3;spacingRight=3;rotatable=0;labelPosition=right;points=[];portConstraint=eastwest;rounded=0;shadow=1;strokeColor=#6c8ebf;swimlaneFillColor=#ffffff;fontFamily=Helvetica;fontSize=12;fontColor=default;fontStyle=1;fillColor=#dae8fc;gradientColor=#ffffff;" parent="2PxFUsdKY2rTfC8V-BGI-84" vertex="1">
          <mxGeometry y="66" width="350" height="8" as="geometry" />
        </mxCell>
        <mxCell id="2PxFUsdKY2rTfC8V-BGI-87" value="__init__( p_id : int = -1,&#xa;                p_status : bool,&#xa;                p_tstamp : TStampType = None,&#xa;                p_visualise : bool = False,&#xa;                p_raising_object : object = None,&#xa;                p_instances : list[Instance],&#xa;                **p_kwargs )" style="text;align=left;verticalAlign=top;spacingLeft=4;spacingRight=4;overflow=hidden;rotatable=0;points=[[0,0.5],[1,0.5]];portConstraint=eastwest;fontStyle=1" parent="2PxFUsdKY2rTfC8V-BGI-84" vertex="1">
          <mxGeometry y="74" width="350" height="110" as="geometry" />
        </mxCell>
        <mxCell id="2PxFUsdKY2rTfC8V-BGI-94" value="Template for anomaly detectors" style="rounded=0;whiteSpace=wrap;html=1;fillColor=#fff2cc;strokeColor=#d6b656;shadow=1;align=left;fontStyle=1;verticalAlign=top;" parent="WIyWlLk6GJQsqaUBKTNV-1" vertex="1">
          <mxGeometry x="592" y="900" width="110" height="41" as="geometry" />
        </mxCell>
        <mxCell id="2PxFUsdKY2rTfC8V-BGI-95" value="Template for drift detectors" style="rounded=0;whiteSpace=wrap;html=1;fillColor=#fff2cc;strokeColor=#d6b656;shadow=1;align=left;fontStyle=1;verticalAlign=top;" parent="WIyWlLk6GJQsqaUBKTNV-1" vertex="1">
          <mxGeometry x="1765" y="900" width="105" height="41" as="geometry" />
        </mxCell>
        <mxCell id="2PxFUsdKY2rTfC8V-BGI-96" value="Abstract prototype for change detectors" style="rounded=0;whiteSpace=wrap;html=1;fillColor=#fff2cc;strokeColor=#d6b656;shadow=1;align=left;fontStyle=1;verticalAlign=top;" parent="WIyWlLk6GJQsqaUBKTNV-1" vertex="1">
          <mxGeometry x="950" y="580" width="130" height="50" as="geometry" />
        </mxCell>
        <mxCell id="2PxFUsdKY2rTfC8V-BGI-103" value="Abstract prototype for change Events" style="rounded=0;whiteSpace=wrap;html=1;fillColor=#fff2cc;strokeColor=#d6b656;shadow=1;align=left;fontStyle=1;verticalAlign=top;" parent="WIyWlLk6GJQsqaUBKTNV-1" vertex="1">
          <mxGeometry x="960" y="50" width="120" height="41" as="geometry" />
        </mxCell>
        <mxCell id="2PxFUsdKY2rTfC8V-BGI-104" value="Subtype for anomaly events" style="rounded=0;whiteSpace=wrap;html=1;fillColor=#fff2cc;strokeColor=#d6b656;shadow=1;align=left;fontStyle=1;verticalAlign=top;" parent="WIyWlLk6GJQsqaUBKTNV-1" vertex="1">
          <mxGeometry x="120" y="900" width="100" height="41" as="geometry" />
        </mxCell>
        <mxCell id="2PxFUsdKY2rTfC8V-BGI-105" value="Subtype for drift events" style="rounded=0;whiteSpace=wrap;html=1;fillColor=#fff2cc;strokeColor=#d6b656;shadow=1;align=left;fontStyle=1;verticalAlign=top;" parent="WIyWlLk6GJQsqaUBKTNV-1" vertex="1">
          <mxGeometry x="2250" y="900" width="100" height="41" as="geometry" />
        </mxCell>
        <mxCell id="2PxFUsdKY2rTfC8V-BGI-106" value="Subtype for instance-based anomalies" style="rounded=0;whiteSpace=wrap;html=1;fillColor=#fff2cc;strokeColor=#d6b656;shadow=1;align=left;fontStyle=1;verticalAlign=top;" parent="WIyWlLk6GJQsqaUBKTNV-1" vertex="1">
          <mxGeometry x="2250" y="1010" width="100" height="51" as="geometry" />
        </mxCell>
        <mxCell id="2PxFUsdKY2rTfC8V-BGI-107" value="Template for instance-based anomaly detectors" style="rounded=0;whiteSpace=wrap;html=1;fillColor=#fff2cc;strokeColor=#d6b656;shadow=1;align=left;fontStyle=1;verticalAlign=top;" parent="WIyWlLk6GJQsqaUBKTNV-1" vertex="1">
          <mxGeometry x="100" y="1250" width="120" height="59" as="geometry" />
        </mxCell>
        <mxCell id="2PxFUsdKY2rTfC8V-BGI-108" value="Template for instance-based drift detectors" style="rounded=0;whiteSpace=wrap;html=1;fillColor=#fff2cc;strokeColor=#d6b656;shadow=1;align=left;fontStyle=1;verticalAlign=top;" parent="WIyWlLk6GJQsqaUBKTNV-1" vertex="1">
          <mxGeometry x="2260" y="1260" width="100" height="59" as="geometry" />
        </mxCell>
        <mxCell id="P8m3U_S5QSKX-hw6cI7y-39" style="edgeStyle=orthogonalEdgeStyle;rounded=0;orthogonalLoop=1;jettySize=auto;html=1;endArrow=block;endFill=0;" parent="WIyWlLk6GJQsqaUBKTNV-1" source="P8m3U_S5QSKX-hw6cI7y-0" target="4use4ZCXdNiZSNTW99xv-1" edge="1">
          <mxGeometry relative="1" as="geometry" />
        </mxCell>
        <mxCell id="P8m3U_S5QSKX-hw6cI7y-41" style="edgeStyle=orthogonalEdgeStyle;rounded=0;orthogonalLoop=1;jettySize=auto;html=1;endArrow=block;endFill=1;exitX=0.75;exitY=0;exitDx=0;exitDy=0;entryX=0.5;entryY=1;entryDx=0;entryDy=0;" parent="WIyWlLk6GJQsqaUBKTNV-1" source="P8m3U_S5QSKX-hw6cI7y-0" target="P8m3U_S5QSKX-hw6cI7y-22" edge="1">
          <mxGeometry relative="1" as="geometry">
            <mxPoint x="1454.9411764705883" y="1750" as="targetPoint" />
          </mxGeometry>
        </mxCell>
        <mxCell id="P8m3U_S5QSKX-hw6cI7y-0" value="ChangeDetectorCB&#xa;(ChangeDetector)" style="swimlane;align=center;verticalAlign=top;childLayout=stackLayout;horizontal=1;startSize=41;horizontalStack=0;resizeParent=1;resizeLast=0;collapsible=1;marginBottom=0;rounded=0;shadow=1;strokeWidth=1;fillColor=#dae8fc;strokeColor=#6c8ebf;swimlaneFillColor=#ffffff;gradientColor=#FFFFFF;" parent="WIyWlLk6GJQsqaUBKTNV-1" vertex="1">
          <mxGeometry x="1060" y="1850" width="350" height="464" as="geometry">
            <mxRectangle x="230" y="140" width="160" height="26" as="alternateBounds" />
          </mxGeometry>
        </mxCell>
        <mxCell id="P8m3U_S5QSKX-hw6cI7y-1" value="C_TYPE  = &#39;Cluster-based Change Detector&#39;" style="text;align=left;verticalAlign=top;spacingLeft=4;spacingRight=4;overflow=hidden;rotatable=0;points=[[0,0.5],[1,0.5]];portConstraint=eastwest;fontStyle=0;fontColor=default;" parent="P8m3U_S5QSKX-hw6cI7y-0" vertex="1">
          <mxGeometry y="41" width="350" height="26" as="geometry" />
        </mxCell>
        <mxCell id="P8m3U_S5QSKX-hw6cI7y-2" value="C_REQ_CLUSTER_PROPERTIES : PropertyDefinitions = []" style="text;align=left;verticalAlign=top;spacingLeft=4;spacingRight=4;overflow=hidden;rotatable=0;points=[[0,0.5],[1,0.5]];portConstraint=eastwest;html=1;fontColor=#0000FF;" parent="P8m3U_S5QSKX-hw6cI7y-0" vertex="1">
          <mxGeometry y="67" width="350" height="24" as="geometry" />
        </mxCell>
        <mxCell id="P8m3U_S5QSKX-hw6cI7y-35" value="_clusterer : ClusterAnalyzer" style="text;align=left;verticalAlign=top;spacingLeft=4;spacingRight=4;overflow=hidden;rotatable=0;points=[[0,0.5],[1,0.5]];portConstraint=eastwest;fontStyle=0;fontColor=default;" parent="P8m3U_S5QSKX-hw6cI7y-0" vertex="1">
          <mxGeometry y="91" width="350" height="26" as="geometry" />
        </mxCell>
        <mxCell id="P8m3U_S5QSKX-hw6cI7y-37" value="_thrs_clusters : int" style="text;align=left;verticalAlign=top;spacingLeft=4;spacingRight=4;overflow=hidden;rotatable=0;points=[[0,0.5],[1,0.5]];portConstraint=eastwest;fontStyle=0;fontColor=default;" parent="P8m3U_S5QSKX-hw6cI7y-0" vertex="1">
          <mxGeometry y="117" width="350" height="26" as="geometry" />
        </mxCell>
        <mxCell id="do9QJcIUAk-ISC9gmYgT-2" value="cb_changes : dict[]" style="text;align=left;verticalAlign=top;spacingLeft=4;spacingRight=4;overflow=hidden;rotatable=0;points=[[0,0.5],[1,0.5]];portConstraint=eastwest;fontStyle=1" parent="P8m3U_S5QSKX-hw6cI7y-0" vertex="1">
          <mxGeometry y="143" width="350" height="26" as="geometry" />
        </mxCell>
        <mxCell id="P8m3U_S5QSKX-hw6cI7y-9" value="" style="line;html=1;strokeWidth=1;align=center;verticalAlign=top;spacingTop=-1;spacingLeft=3;spacingRight=3;rotatable=0;labelPosition=right;points=[];portConstraint=eastwest;rounded=0;shadow=1;strokeColor=#6c8ebf;swimlaneFillColor=#ffffff;fontFamily=Helvetica;fontSize=12;fontColor=default;fontStyle=3;fillColor=#dae8fc;gradientColor=#ffffff;" parent="P8m3U_S5QSKX-hw6cI7y-0" vertex="1">
          <mxGeometry y="169" width="350" height="8" as="geometry" />
        </mxCell>
        <mxCell id="P8m3U_S5QSKX-hw6cI7y-10" value="__init__( p_clusterer : ClusterAnalyzer,&#xa;                p_name : str = None,&#xa;               p_range_max=MLTask.C_RANGE_THREAD,&#xa;               p_ada : bool = True,&#xa;               p_duplicate_data : bool = False&#xa;               p_visualize : bool = False,&#xa;               p_logging = Log.C_LOG_ALL,&#xa;               p_change_buffer_size : int = 100,&#xa;               p_thrs_inst : int = 0,&#xa;               p_thrs_clusters : int = 1,&#xa;               **p_kwargs )" style="text;align=left;verticalAlign=top;spacingLeft=4;spacingRight=4;overflow=hidden;rotatable=0;points=[[0,0.5],[1,0.5]];portConstraint=eastwest;fontStyle=1" parent="P8m3U_S5QSKX-hw6cI7y-0" vertex="1">
          <mxGeometry y="177" width="350" height="167" as="geometry" />
        </mxCell>
        <mxCell id="P8m3U_S5QSKX-hw6cI7y-15" value="_detect( p_clusters : dict, p_inst : Instance, **p_kwargs )" style="text;align=left;verticalAlign=top;spacingLeft=4;spacingRight=4;overflow=hidden;rotatable=0;points=[[0,0.5],[1,0.5]];portConstraint=eastwest;shadow=1;fontColor=#0000FF;" parent="P8m3U_S5QSKX-hw6cI7y-0" vertex="1">
          <mxGeometry y="344" width="350" height="30" as="geometry" />
        </mxCell>
        <mxCell id="P8m3U_S5QSKX-hw6cI7y-17" value="_run( p_inst : InstDict )" style="text;align=left;verticalAlign=top;spacingLeft=4;spacingRight=4;overflow=hidden;rotatable=0;points=[[0,0.5],[1,0.5]];portConstraint=eastwest;shadow=1;fontColor=default;" parent="P8m3U_S5QSKX-hw6cI7y-0" vertex="1">
          <mxGeometry y="374" width="350" height="30" as="geometry" />
        </mxCell>
        <mxCell id="do9QJcIUAk-ISC9gmYgT-0" value="_buffer_change(p_change: Change)" style="text;align=left;verticalAlign=top;spacingLeft=4;spacingRight=4;overflow=hidden;rotatable=0;points=[[0,0.5],[1,0.5]];portConstraint=eastwest;shadow=1;fontColor=default;" parent="P8m3U_S5QSKX-hw6cI7y-0" vertex="1">
          <mxGeometry y="404" width="350" height="30" as="geometry" />
        </mxCell>
        <mxCell id="do9QJcIUAk-ISC9gmYgT-1" value="_remove_change(p_change: Change)" style="text;align=left;verticalAlign=top;spacingLeft=4;spacingRight=4;overflow=hidden;rotatable=0;points=[[0,0.5],[1,0.5]];portConstraint=eastwest;shadow=1;fontColor=default;" parent="P8m3U_S5QSKX-hw6cI7y-0" vertex="1">
          <mxGeometry y="434" width="350" height="30" as="geometry" />
        </mxCell>
        <mxCell id="P8m3U_S5QSKX-hw6cI7y-40" style="edgeStyle=orthogonalEdgeStyle;rounded=0;orthogonalLoop=1;jettySize=auto;html=1;entryX=1;entryY=0.5;entryDx=0;entryDy=0;endArrow=block;endFill=0;exitX=0.5;exitY=0;exitDx=0;exitDy=0;" parent="WIyWlLk6GJQsqaUBKTNV-1" source="P8m3U_S5QSKX-hw6cI7y-22" target="azBydEVot9yI6jtSICJJ-2" edge="1">
          <mxGeometry relative="1" as="geometry">
            <Array as="points">
              <mxPoint x="1455" y="496" />
            </Array>
          </mxGeometry>
        </mxCell>
        <mxCell id="P8m3U_S5QSKX-hw6cI7y-22" value="ChangeCB&#xa;(Change)" style="swimlane;fontStyle=1;align=center;verticalAlign=top;childLayout=stackLayout;horizontal=1;startSize=42;horizontalStack=0;resizeParent=1;resizeLast=0;collapsible=1;marginBottom=0;rounded=0;shadow=1;strokeWidth=1;fillColor=#dae8fc;strokeColor=#6c8ebf;swimlaneFillColor=#ffffff;fontFamily=Helvetica;fontSize=12;gradientColor=#FFFFFF;" parent="WIyWlLk6GJQsqaUBKTNV-1" vertex="1">
          <mxGeometry x="1280" y="1450" width="350" height="320" as="geometry">
            <mxRectangle x="230" y="140" width="160" height="26" as="alternateBounds" />
          </mxGeometry>
        </mxCell>
        <mxCell id="P8m3U_S5QSKX-hw6cI7y-28" value="clusters : dict[Cluster]" style="text;align=left;verticalAlign=top;spacingLeft=4;spacingRight=4;overflow=hidden;rotatable=0;points=[[0,0.5],[1,0.5]];portConstraint=eastwest;fontStyle=1" parent="P8m3U_S5QSKX-hw6cI7y-22" vertex="1">
          <mxGeometry y="42" width="350" height="26" as="geometry" />
        </mxCell>
        <mxCell id="P8m3U_S5QSKX-hw6cI7y-34" value="_properties : PropertyDefinitions" style="text;align=left;verticalAlign=top;spacingLeft=4;spacingRight=4;overflow=hidden;rotatable=0;points=[[0,0.5],[1,0.5]];portConstraint=eastwest;fontStyle=1" parent="P8m3U_S5QSKX-hw6cI7y-22" vertex="1">
          <mxGeometry y="68" width="350" height="26" as="geometry" />
        </mxCell>
        <mxCell id="P8m3U_S5QSKX-hw6cI7y-29" value="" style="line;html=1;strokeWidth=1;align=center;verticalAlign=top;spacingTop=-1;spacingLeft=3;spacingRight=3;rotatable=0;labelPosition=right;points=[];portConstraint=eastwest;rounded=0;shadow=1;strokeColor=#6c8ebf;swimlaneFillColor=#ffffff;fontFamily=Helvetica;fontSize=12;fontColor=default;fontStyle=1;fillColor=#dae8fc;gradientColor=#ffffff;" parent="P8m3U_S5QSKX-hw6cI7y-22" vertex="1">
          <mxGeometry y="94" width="350" height="8" as="geometry" />
        </mxCell>
        <mxCell id="P8m3U_S5QSKX-hw6cI7y-30" value="__init__( p_id : int = -1,&#xa;                p_status : bool = True,&#xa;                p_tstamp : TStampType = None,&#xa;                p_visualise : bool = False,&#xa;                p_raising_object : object = None,&#xa;                p_clusters : dict[Clusters] = {},&#xa;                p_properties : PropertyDefinitions = [],&#xa;                **p_kwargs )" style="text;align=left;verticalAlign=top;spacingLeft=4;spacingRight=4;overflow=hidden;rotatable=0;points=[[0,0.5],[1,0.5]];portConstraint=eastwest;fontStyle=1" parent="P8m3U_S5QSKX-hw6cI7y-22" vertex="1">
          <mxGeometry y="102" width="350" height="127" as="geometry" />
        </mxCell>
        <mxCell id="P8m3U_S5QSKX-hw6cI7y-33" value="add_clusters( p_clusters : dict )" style="text;align=left;verticalAlign=top;spacingLeft=4;spacingRight=4;overflow=hidden;rotatable=0;points=[[0,0.5],[1,0.5]];portConstraint=eastwest;fontStyle=0" parent="P8m3U_S5QSKX-hw6cI7y-22" vertex="1">
          <mxGeometry y="229" width="350" height="26" as="geometry" />
        </mxCell>
        <mxCell id="4LvH10w1mnI7Oj8NLsvD-39" value="_init_plot_2d( p_figure : Figure, p_settings : PlotSettings )" style="text;align=left;verticalAlign=top;spacingLeft=4;spacingRight=4;overflow=hidden;rotatable=0;points=[[0,0.5],[1,0.5]];portConstraint=eastwest;fontStyle=0" parent="P8m3U_S5QSKX-hw6cI7y-22" vertex="1">
          <mxGeometry y="255" width="350" height="26" as="geometry" />
        </mxCell>
        <mxCell id="4LvH10w1mnI7Oj8NLsvD-38" value="_init_plot_3d( p_figure : Figure, p_settings : PlotSettings )" style="text;align=left;verticalAlign=top;spacingLeft=4;spacingRight=4;overflow=hidden;rotatable=0;points=[[0,0.5],[1,0.5]];portConstraint=eastwest;fontStyle=0" parent="P8m3U_S5QSKX-hw6cI7y-22" vertex="1">
          <mxGeometry y="281" width="350" height="26" as="geometry" />
        </mxCell>
        <mxCell id="P8m3U_S5QSKX-hw6cI7y-36" value="Abstract prototype for cluster-based change detectors" style="rounded=0;whiteSpace=wrap;html=1;fillColor=#fff2cc;strokeColor=#d6b656;shadow=1;align=left;fontStyle=1;verticalAlign=top;" parent="WIyWlLk6GJQsqaUBKTNV-1" vertex="1">
          <mxGeometry x="960" y="1820" width="130" height="50" as="geometry" />
        </mxCell>
        <mxCell id="P8m3U_S5QSKX-hw6cI7y-38" value="Abstract prototype for cluster-based change Events" style="rounded=0;whiteSpace=wrap;html=1;fillColor=#fff2cc;strokeColor=#d6b656;shadow=1;align=left;fontStyle=1;verticalAlign=top;" parent="WIyWlLk6GJQsqaUBKTNV-1" vertex="1">
          <mxGeometry x="1260" y="1420" width="120" height="55.5" as="geometry" />
        </mxCell>
        <mxCell id="4LvH10w1mnI7Oj8NLsvD-9" style="edgeStyle=orthogonalEdgeStyle;rounded=0;orthogonalLoop=1;jettySize=auto;html=1;endArrow=block;endFill=0;" parent="WIyWlLk6GJQsqaUBKTNV-1" source="4LvH10w1mnI7Oj8NLsvD-0" target="2PxFUsdKY2rTfC8V-BGI-0" edge="1">
          <mxGeometry relative="1" as="geometry" />
        </mxCell>
        <mxCell id="4LvH10w1mnI7Oj8NLsvD-10" style="edgeStyle=orthogonalEdgeStyle;rounded=0;orthogonalLoop=1;jettySize=auto;html=1;endArrow=block;endFill=0;" parent="WIyWlLk6GJQsqaUBKTNV-1" source="4LvH10w1mnI7Oj8NLsvD-0" target="P8m3U_S5QSKX-hw6cI7y-0" edge="1">
          <mxGeometry relative="1" as="geometry" />
        </mxCell>
        <mxCell id="4LvH10w1mnI7Oj8NLsvD-32" style="edgeStyle=orthogonalEdgeStyle;rounded=0;orthogonalLoop=1;jettySize=auto;html=1;entryX=1;entryY=0.5;entryDx=0;entryDy=0;endArrow=block;endFill=1;" parent="WIyWlLk6GJQsqaUBKTNV-1" source="4LvH10w1mnI7Oj8NLsvD-0" target="4LvH10w1mnI7Oj8NLsvD-25" edge="1">
          <mxGeometry relative="1" as="geometry" />
        </mxCell>
        <mxCell id="4LvH10w1mnI7Oj8NLsvD-0" value="AnomalyDetectorCB&#xa;(ChangeDetectorCB, AnomalyDetector)" style="swimlane;align=center;verticalAlign=top;childLayout=stackLayout;horizontal=1;startSize=41;horizontalStack=0;resizeParent=1;resizeLast=0;collapsible=1;marginBottom=0;rounded=0;shadow=1;strokeWidth=3;fillColor=#dae8fc;strokeColor=#6c8ebf;swimlaneFillColor=#ffffff;gradientColor=#FFFFFF;" parent="WIyWlLk6GJQsqaUBKTNV-1" vertex="1">
          <mxGeometry x="630" y="1928" width="350" height="328" as="geometry">
            <mxRectangle x="230" y="140" width="160" height="26" as="alternateBounds" />
          </mxGeometry>
        </mxCell>
        <mxCell id="4LvH10w1mnI7Oj8NLsvD-1" value="C_TYPE = &#39;Cluster-based Anomaly Detector&#39;" style="text;align=left;verticalAlign=top;spacingLeft=4;spacingRight=4;overflow=hidden;rotatable=0;points=[[0,0.5],[1,0.5]];portConstraint=eastwest;fontStyle=0;fontColor=default;" parent="4LvH10w1mnI7Oj8NLsvD-0" vertex="1">
          <mxGeometry y="41" width="350" height="26" as="geometry" />
        </mxCell>
        <mxCell id="do9QJcIUAk-ISC9gmYgT-3" value="cb_anomalies : dict[]" style="text;align=left;verticalAlign=top;spacingLeft=4;spacingRight=4;overflow=hidden;rotatable=0;points=[[0,0.5],[1,0.5]];portConstraint=eastwest;fontStyle=1" parent="4LvH10w1mnI7Oj8NLsvD-0" vertex="1">
          <mxGeometry y="67" width="350" height="26" as="geometry" />
        </mxCell>
        <mxCell id="4LvH10w1mnI7Oj8NLsvD-5" value="" style="line;html=1;strokeWidth=1;align=center;verticalAlign=top;spacingTop=-1;spacingLeft=3;spacingRight=3;rotatable=0;labelPosition=right;points=[];portConstraint=eastwest;rounded=0;shadow=1;strokeColor=#6c8ebf;swimlaneFillColor=#ffffff;fontFamily=Helvetica;fontSize=12;fontColor=default;fontStyle=3;fillColor=#dae8fc;gradientColor=#ffffff;" parent="4LvH10w1mnI7Oj8NLsvD-0" vertex="1">
          <mxGeometry y="93" width="350" height="8" as="geometry" />
        </mxCell>
        <mxCell id="4LvH10w1mnI7Oj8NLsvD-6" value="__init__( p_clusterer : ClusterAnalyzer,&#xa;                p_name : str = None,&#xa;               p_range_max=MLTask.C_RANGE_THREAD,&#xa;               p_ada : bool = True,&#xa;               p_duplicate_data : bool = False&#xa;               p_visualize : bool = False,&#xa;               p_logging = Log.C_LOG_ALL,&#xa;               p_anomaly_buffer_size : int = 100,&#xa;               p_thrs_inst : int = 0,&#xa;               p_thrs_clusters : int = 1,&#xa;               **p_kwargs )" style="text;align=left;verticalAlign=top;spacingLeft=4;spacingRight=4;overflow=hidden;rotatable=0;points=[[0,0.5],[1,0.5]];portConstraint=eastwest;fontStyle=1" parent="4LvH10w1mnI7Oj8NLsvD-0" vertex="1">
          <mxGeometry y="101" width="350" height="167" as="geometry" />
        </mxCell>
        <mxCell id="4LvH10w1mnI7Oj8NLsvD-42" value="_triage( p_change : Change, **p_kwargs ) -&gt; bool" style="text;align=left;verticalAlign=top;spacingLeft=4;spacingRight=4;overflow=hidden;rotatable=0;points=[[0,0.5],[1,0.5]];portConstraint=eastwest;shadow=1;" parent="4LvH10w1mnI7Oj8NLsvD-0" vertex="1">
          <mxGeometry y="268" width="350" height="30" as="geometry" />
        </mxCell>
        <mxCell id="4LvH10w1mnI7Oj8NLsvD-43" value="_triage_anomaly( p_anomaly : Anomaly, **p_kwargs ) -&gt; bool" style="text;align=left;verticalAlign=top;spacingLeft=4;spacingRight=4;overflow=hidden;rotatable=0;points=[[0,0.5],[1,0.5]];portConstraint=eastwest;shadow=1;fontColor=#0000FF;" parent="4LvH10w1mnI7Oj8NLsvD-0" vertex="1">
          <mxGeometry y="298" width="350" height="30" as="geometry" />
        </mxCell>
        <mxCell id="4LvH10w1mnI7Oj8NLsvD-15" style="edgeStyle=orthogonalEdgeStyle;rounded=0;orthogonalLoop=1;jettySize=auto;html=1;endArrow=block;endFill=0;" parent="WIyWlLk6GJQsqaUBKTNV-1" source="4LvH10w1mnI7Oj8NLsvD-11" target="P8m3U_S5QSKX-hw6cI7y-0" edge="1">
          <mxGeometry relative="1" as="geometry" />
        </mxCell>
        <mxCell id="4LvH10w1mnI7Oj8NLsvD-16" style="edgeStyle=orthogonalEdgeStyle;rounded=0;orthogonalLoop=1;jettySize=auto;html=1;endArrow=block;endFill=0;" parent="WIyWlLk6GJQsqaUBKTNV-1" source="4LvH10w1mnI7Oj8NLsvD-11" target="2PxFUsdKY2rTfC8V-BGI-12" edge="1">
          <mxGeometry relative="1" as="geometry" />
        </mxCell>
        <mxCell id="4LvH10w1mnI7Oj8NLsvD-33" style="edgeStyle=orthogonalEdgeStyle;rounded=0;orthogonalLoop=1;jettySize=auto;html=1;entryX=0;entryY=0.5;entryDx=0;entryDy=0;endArrow=block;endFill=1;" parent="WIyWlLk6GJQsqaUBKTNV-1" source="4LvH10w1mnI7Oj8NLsvD-11" target="4LvH10w1mnI7Oj8NLsvD-30" edge="1">
          <mxGeometry relative="1" as="geometry" />
        </mxCell>
        <mxCell id="4LvH10w1mnI7Oj8NLsvD-11" value="DriftDetectorCB&#xa;(ChangeDetectorCB, DriftDetector)" style="swimlane;align=center;verticalAlign=top;childLayout=stackLayout;horizontal=1;startSize=41;horizontalStack=0;resizeParent=1;resizeLast=0;collapsible=1;marginBottom=0;rounded=0;shadow=1;strokeWidth=3;fillColor=#dae8fc;strokeColor=#6c8ebf;swimlaneFillColor=#ffffff;gradientColor=#FFFFFF;" parent="WIyWlLk6GJQsqaUBKTNV-1" vertex="1">
          <mxGeometry x="1490" y="1928" width="350" height="328" as="geometry">
            <mxRectangle x="230" y="140" width="160" height="26" as="alternateBounds" />
          </mxGeometry>
        </mxCell>
        <mxCell id="4LvH10w1mnI7Oj8NLsvD-12" value="C_TYPE = &#39;Cluster-based Drift Detector&#39;" style="text;align=left;verticalAlign=top;spacingLeft=4;spacingRight=4;overflow=hidden;rotatable=0;points=[[0,0.5],[1,0.5]];portConstraint=eastwest;fontStyle=0;fontColor=default;" parent="4LvH10w1mnI7Oj8NLsvD-11" vertex="1">
          <mxGeometry y="41" width="350" height="26" as="geometry" />
        </mxCell>
        <mxCell id="do9QJcIUAk-ISC9gmYgT-4" value="cb_drifts : dict[]" style="text;align=left;verticalAlign=top;spacingLeft=4;spacingRight=4;overflow=hidden;rotatable=0;points=[[0,0.5],[1,0.5]];portConstraint=eastwest;fontStyle=1" parent="4LvH10w1mnI7Oj8NLsvD-11" vertex="1">
          <mxGeometry y="67" width="350" height="26" as="geometry" />
        </mxCell>
        <mxCell id="4LvH10w1mnI7Oj8NLsvD-13" value="" style="line;html=1;strokeWidth=1;align=center;verticalAlign=top;spacingTop=-1;spacingLeft=3;spacingRight=3;rotatable=0;labelPosition=right;points=[];portConstraint=eastwest;rounded=0;shadow=1;strokeColor=#6c8ebf;swimlaneFillColor=#ffffff;fontFamily=Helvetica;fontSize=12;fontColor=default;fontStyle=3;fillColor=#dae8fc;gradientColor=#ffffff;" parent="4LvH10w1mnI7Oj8NLsvD-11" vertex="1">
          <mxGeometry y="93" width="350" height="8" as="geometry" />
        </mxCell>
        <mxCell id="4LvH10w1mnI7Oj8NLsvD-14" value="__init__( p_clusterer : ClusterAnalyzer,&#xa;                p_name : str = None,&#xa;               p_range_max=MLTask.C_RANGE_THREAD,&#xa;               p_ada : bool = True,&#xa;               p_duplicate_data : bool = False&#xa;               p_visualize : bool = False,&#xa;               p_logging = Log.C_LOG_ALL,&#xa;               p_drift_buffer_size : int = 100,&#xa;               p_thrs_inst : int = 0,&#xa;               p_thrs_clusters : int = 1,&#xa;               **p_kwargs )" style="text;align=left;verticalAlign=top;spacingLeft=4;spacingRight=4;overflow=hidden;rotatable=0;points=[[0,0.5],[1,0.5]];portConstraint=eastwest;fontStyle=1" parent="4LvH10w1mnI7Oj8NLsvD-11" vertex="1">
          <mxGeometry y="101" width="350" height="167" as="geometry" />
        </mxCell>
        <mxCell id="4LvH10w1mnI7Oj8NLsvD-44" value="_triage( p_change : Change, **p_kwargs ) -&gt; bool" style="text;align=left;verticalAlign=top;spacingLeft=4;spacingRight=4;overflow=hidden;rotatable=0;points=[[0,0.5],[1,0.5]];portConstraint=eastwest;shadow=1;" parent="4LvH10w1mnI7Oj8NLsvD-11" vertex="1">
          <mxGeometry y="268" width="350" height="30" as="geometry" />
        </mxCell>
        <mxCell id="4LvH10w1mnI7Oj8NLsvD-45" value="_triage_drift( p_drift : Drift, **p_kwargs ) -&gt; bool" style="text;align=left;verticalAlign=top;spacingLeft=4;spacingRight=4;overflow=hidden;rotatable=0;points=[[0,0.5],[1,0.5]];portConstraint=eastwest;shadow=1;fontColor=#0000FF;" parent="4LvH10w1mnI7Oj8NLsvD-11" vertex="1">
          <mxGeometry y="298" width="350" height="30" as="geometry" />
        </mxCell>
        <mxCell id="4LvH10w1mnI7Oj8NLsvD-17" value="Template for cluster-based anomaly detection" style="rounded=0;whiteSpace=wrap;html=1;fillColor=#fff2cc;strokeColor=#d6b656;shadow=1;align=left;fontStyle=1;verticalAlign=top;" parent="WIyWlLk6GJQsqaUBKTNV-1" vertex="1">
          <mxGeometry x="530" y="1900" width="130" height="50" as="geometry" />
        </mxCell>
        <mxCell id="4LvH10w1mnI7Oj8NLsvD-18" value="Template for cluster-based drift detection" style="rounded=0;whiteSpace=wrap;html=1;fillColor=#fff2cc;strokeColor=#d6b656;shadow=1;align=left;fontStyle=1;verticalAlign=top;" parent="WIyWlLk6GJQsqaUBKTNV-1" vertex="1">
          <mxGeometry x="1820" y="1890" width="130" height="50" as="geometry" />
        </mxCell>
        <mxCell id="4LvH10w1mnI7Oj8NLsvD-28" style="edgeStyle=orthogonalEdgeStyle;rounded=0;orthogonalLoop=1;jettySize=auto;html=1;entryX=0;entryY=0.5;entryDx=0;entryDy=0;endArrow=block;endFill=0;" parent="WIyWlLk6GJQsqaUBKTNV-1" source="4LvH10w1mnI7Oj8NLsvD-25" target="P8m3U_S5QSKX-hw6cI7y-30" edge="1">
          <mxGeometry relative="1" as="geometry" />
        </mxCell>
        <mxCell id="4LvH10w1mnI7Oj8NLsvD-29" style="edgeStyle=orthogonalEdgeStyle;rounded=0;orthogonalLoop=1;jettySize=auto;html=1;entryX=0;entryY=0.5;entryDx=0;entryDy=0;endArrow=block;endFill=0;exitX=0.5;exitY=0;exitDx=0;exitDy=0;" parent="WIyWlLk6GJQsqaUBKTNV-1" source="4LvH10w1mnI7Oj8NLsvD-25" target="2PxFUsdKY2rTfC8V-BGI-11" edge="1">
          <mxGeometry relative="1" as="geometry">
            <Array as="points">
              <mxPoint x="375" y="1616" />
              <mxPoint x="70" y="1616" />
              <mxPoint x="70" y="955" />
            </Array>
          </mxGeometry>
        </mxCell>
        <mxCell id="4LvH10w1mnI7Oj8NLsvD-25" value="AnomalyCB&#xa;(ChangeCB, Anomaly)" style="swimlane;fontStyle=1;align=center;verticalAlign=top;childLayout=stackLayout;horizontal=1;startSize=42;horizontalStack=0;resizeParent=1;resizeLast=0;collapsible=1;marginBottom=0;rounded=0;shadow=1;strokeWidth=3;fillColor=#dae8fc;strokeColor=#6c8ebf;swimlaneFillColor=#ffffff;fontFamily=Helvetica;fontSize=12;gradientColor=#FFFFFF;" parent="WIyWlLk6GJQsqaUBKTNV-1" vertex="1">
          <mxGeometry x="200" y="2053" width="350" height="177" as="geometry">
            <mxRectangle x="230" y="140" width="160" height="26" as="alternateBounds" />
          </mxGeometry>
        </mxCell>
        <mxCell id="4LvH10w1mnI7Oj8NLsvD-27" value="" style="line;html=1;strokeWidth=1;align=center;verticalAlign=top;spacingTop=-1;spacingLeft=3;spacingRight=3;rotatable=0;labelPosition=right;points=[];portConstraint=eastwest;rounded=0;shadow=1;strokeColor=#6c8ebf;swimlaneFillColor=#ffffff;fontFamily=Helvetica;fontSize=12;fontColor=default;fontStyle=1;fillColor=#dae8fc;gradientColor=#ffffff;" parent="4LvH10w1mnI7Oj8NLsvD-25" vertex="1">
          <mxGeometry y="42" width="350" height="8" as="geometry" />
        </mxCell>
        <mxCell id="4LvH10w1mnI7Oj8NLsvD-40" value="__init__( p_id : int = -1,&#xa;                p_status : bool = True,&#xa;                p_tstamp : TStampType = None,&#xa;                p_visualise : bool = False,&#xa;                p_raising_object : object = None,&#xa;                p_clusters : dict[Clusters] = {},&#xa;                p_properties : PropertyDefinitions = [],&#xa;                **p_kwargs )" style="text;align=left;verticalAlign=top;spacingLeft=4;spacingRight=4;overflow=hidden;rotatable=0;points=[[0,0.5],[1,0.5]];portConstraint=eastwest;fontStyle=1" parent="4LvH10w1mnI7Oj8NLsvD-25" vertex="1">
          <mxGeometry y="50" width="350" height="127" as="geometry" />
        </mxCell>
        <mxCell id="4LvH10w1mnI7Oj8NLsvD-34" style="edgeStyle=orthogonalEdgeStyle;rounded=0;orthogonalLoop=1;jettySize=auto;html=1;endArrow=block;endFill=0;" parent="WIyWlLk6GJQsqaUBKTNV-1" source="4LvH10w1mnI7Oj8NLsvD-30" target="P8m3U_S5QSKX-hw6cI7y-30" edge="1">
          <mxGeometry relative="1" as="geometry" />
        </mxCell>
        <mxCell id="4LvH10w1mnI7Oj8NLsvD-30" value="DriftCB&#xa;(ChangeCB, Drift)" style="swimlane;fontStyle=1;align=center;verticalAlign=top;childLayout=stackLayout;horizontal=1;startSize=42;horizontalStack=0;resizeParent=1;resizeLast=0;collapsible=1;marginBottom=0;rounded=0;shadow=1;strokeWidth=3;fillColor=#dae8fc;strokeColor=#6c8ebf;swimlaneFillColor=#ffffff;fontFamily=Helvetica;fontSize=12;gradientColor=#FFFFFF;" parent="WIyWlLk6GJQsqaUBKTNV-1" vertex="1">
          <mxGeometry x="1920" y="2050" width="350" height="180" as="geometry">
            <mxRectangle x="230" y="140" width="160" height="26" as="alternateBounds" />
          </mxGeometry>
        </mxCell>
        <mxCell id="4LvH10w1mnI7Oj8NLsvD-31" value="" style="line;html=1;strokeWidth=1;align=center;verticalAlign=top;spacingTop=-1;spacingLeft=3;spacingRight=3;rotatable=0;labelPosition=right;points=[];portConstraint=eastwest;rounded=0;shadow=1;strokeColor=#6c8ebf;swimlaneFillColor=#ffffff;fontFamily=Helvetica;fontSize=12;fontColor=default;fontStyle=1;fillColor=#dae8fc;gradientColor=#ffffff;" parent="4LvH10w1mnI7Oj8NLsvD-30" vertex="1">
          <mxGeometry y="42" width="350" height="8" as="geometry" />
        </mxCell>
        <mxCell id="4LvH10w1mnI7Oj8NLsvD-41" value="__init__( p_id : int = -1,&#xa;                p_status : bool = True,&#xa;                p_tstamp : TStampType = None,&#xa;                p_visualise : bool = False,&#xa;                p_raising_object : object = None,&#xa;                p_clusters : dict[Clusters] = {},&#xa;                p_properties : PropertyDefinitions = [],&#xa;                **p_kwargs )" style="text;align=left;verticalAlign=top;spacingLeft=4;spacingRight=4;overflow=hidden;rotatable=0;points=[[0,0.5],[1,0.5]];portConstraint=eastwest;fontStyle=1" parent="4LvH10w1mnI7Oj8NLsvD-30" vertex="1">
          <mxGeometry y="50" width="350" height="127" as="geometry" />
        </mxCell>
        <mxCell id="4LvH10w1mnI7Oj8NLsvD-35" style="edgeStyle=orthogonalEdgeStyle;rounded=0;orthogonalLoop=1;jettySize=auto;html=1;entryX=1;entryY=0.5;entryDx=0;entryDy=0;endArrow=block;endFill=0;" parent="WIyWlLk6GJQsqaUBKTNV-1" source="4LvH10w1mnI7Oj8NLsvD-30" target="2PxFUsdKY2rTfC8V-BGI-23" edge="1">
          <mxGeometry relative="1" as="geometry">
            <Array as="points">
              <mxPoint x="2095" y="1615" />
              <mxPoint x="2390" y="1615" />
              <mxPoint x="2390" y="957" />
            </Array>
          </mxGeometry>
        </mxCell>
        <mxCell id="4LvH10w1mnI7Oj8NLsvD-36" value="Subtype for cluster-based anomalies" style="rounded=0;whiteSpace=wrap;html=1;fillColor=#fff2cc;strokeColor=#d6b656;shadow=1;align=left;fontStyle=1;verticalAlign=top;" parent="WIyWlLk6GJQsqaUBKTNV-1" vertex="1">
          <mxGeometry x="120" y="2017" width="100" height="51" as="geometry" />
        </mxCell>
        <mxCell id="4LvH10w1mnI7Oj8NLsvD-37" value="Subtype for cluster-based drifts" style="rounded=0;whiteSpace=wrap;html=1;fillColor=#fff2cc;strokeColor=#d6b656;shadow=1;align=left;fontStyle=1;verticalAlign=top;" parent="WIyWlLk6GJQsqaUBKTNV-1" vertex="1">
          <mxGeometry x="2240" y="2014.5" width="100" height="51" as="geometry" />
        </mxCell>
        <mxCell id="NV-0vVaFLCSNl-G3C2-m-10" style="edgeStyle=orthogonalEdgeStyle;rounded=0;orthogonalLoop=1;jettySize=auto;html=1;endArrow=block;endFill=0;" parent="WIyWlLk6GJQsqaUBKTNV-1" source="NV-0vVaFLCSNl-G3C2-m-0" target="4LvH10w1mnI7Oj8NLsvD-11" edge="1">
          <mxGeometry relative="1" as="geometry" />
        </mxCell>
        <mxCell id="NV-0vVaFLCSNl-G3C2-m-0" value="DriftDetectorCBGeneric&#xa;(DriftDetectorCB)" style="swimlane;align=center;verticalAlign=top;childLayout=stackLayout;horizontal=1;startSize=41;horizontalStack=0;resizeParent=1;resizeLast=0;collapsible=1;marginBottom=0;rounded=0;shadow=1;strokeWidth=3;fillColor=#dae8fc;strokeColor=#6c8ebf;swimlaneFillColor=#ffffff;gradientColor=#FFFFFF;" parent="WIyWlLk6GJQsqaUBKTNV-1" vertex="1">
          <mxGeometry x="1490" y="2310" width="350" height="463" as="geometry">
            <mxRectangle x="230" y="140" width="160" height="26" as="alternateBounds" />
          </mxGeometry>
        </mxCell>
        <mxCell id="NV-0vVaFLCSNl-G3C2-m-1" value="C_TYPE    = &#39;Cluster-based Generic Drift Detector&#39;" style="text;align=left;verticalAlign=top;spacingLeft=4;spacingRight=4;overflow=hidden;rotatable=0;points=[[0,0.5],[1,0.5]];portConstraint=eastwest;" parent="NV-0vVaFLCSNl-G3C2-m-0" vertex="1">
          <mxGeometry y="41" width="350" height="24" as="geometry" />
        </mxCell>
        <mxCell id="NV-0vVaFLCSNl-G3C2-m-2" value="_cls_drift : type[DriftCB]" style="text;align=left;verticalAlign=top;spacingLeft=4;spacingRight=4;overflow=hidden;rotatable=0;points=[[0,0.5],[1,0.5]];portConstraint=eastwest;" parent="NV-0vVaFLCSNl-G3C2-m-0" vertex="1">
          <mxGeometry y="65" width="350" height="24" as="geometry" />
        </mxCell>
        <mxCell id="NV-0vVaFLCSNl-G3C2-m-3" value="cluster_drifts = {}" style="text;align=left;verticalAlign=top;spacingLeft=4;spacingRight=4;overflow=hidden;rotatable=0;points=[[0,0.5],[1,0.5]];portConstraint=eastwest;" parent="NV-0vVaFLCSNl-G3C2-m-0" vertex="1">
          <mxGeometry y="89" width="350" height="24" as="geometry" />
        </mxCell>
        <mxCell id="NV-0vVaFLCSNl-G3C2-m-4" value="" style="line;html=1;strokeWidth=1;align=center;verticalAlign=top;spacingTop=-1;spacingLeft=3;spacingRight=3;rotatable=0;labelPosition=right;points=[];portConstraint=eastwest;rounded=0;shadow=1;strokeColor=#6c8ebf;swimlaneFillColor=#ffffff;fontFamily=Helvetica;fontSize=12;fontColor=default;fontStyle=3;fillColor=#dae8fc;gradientColor=#ffffff;" parent="NV-0vVaFLCSNl-G3C2-m-0" vertex="1">
          <mxGeometry y="113" width="350" height="8" as="geometry" />
        </mxCell>
        <mxCell id="NV-0vVaFLCSNl-G3C2-m-5" value="__init__( p_clusterer : ClusterAnalyzer,&#xa;               p_properties : PropertyDefinitions,&#xa;               p_cls_drift : type[DriftCB],&#xa;               p_name : str = None,&#xa;               p_range_max=OAStreamTask.C_RANGE_THREAD,&#xa;               p_ada : bool = True,&#xa;               p_duplicate_data : bool = False,&#xa;               p_visualize : bool = False,&#xa;               p_logging = Log.C_LOG_ALL,&#xa;               p_drift_buffer_size : int = 100,&#xa;               p_thrs_inst : int = 0,&#xa;               p_thrs_clusters : int = 1,&#xa;               **p_kwargs )" style="text;align=left;verticalAlign=top;spacingLeft=4;spacingRight=4;overflow=hidden;rotatable=0;points=[[0,0.5],[1,0.5]];portConstraint=eastwest;fontStyle=1" parent="NV-0vVaFLCSNl-G3C2-m-0" vertex="1">
          <mxGeometry y="121" width="350" height="196" as="geometry" />
        </mxCell>
        <mxCell id="NV-0vVaFLCSNl-G3C2-m-8" value="_detect( p_clusters : dict, p_instance : Instance, **p_kwargs )" style="text;align=left;verticalAlign=top;spacingLeft=4;spacingRight=4;overflow=hidden;rotatable=0;points=[[0,0.5],[1,0.5]];portConstraint=eastwest;shadow=1;" parent="NV-0vVaFLCSNl-G3C2-m-0" vertex="1">
          <mxGeometry y="317" width="350" height="30" as="geometry" />
        </mxCell>
        <mxCell id="NV-0vVaFLCSNl-G3C2-m-9" value="_get_drift_status( p_cluster : Cluster,&#xa;                             p_properties : PropertyDefinitons,&#xa;                             **p_kwargs ) -&gt; bool" style="text;align=left;verticalAlign=top;spacingLeft=4;spacingRight=4;overflow=hidden;rotatable=0;points=[[0,0.5],[1,0.5]];portConstraint=eastwest;shadow=1;fontColor=#0000FF;" parent="NV-0vVaFLCSNl-G3C2-m-0" vertex="1">
          <mxGeometry y="347" width="350" height="53" as="geometry" />
        </mxCell>
        <mxCell id="NV-0vVaFLCSNl-G3C2-m-11" value="Template for generic cluster-based drift detection" style="rounded=0;whiteSpace=wrap;html=1;fillColor=#fff2cc;strokeColor=#d6b656;shadow=1;align=left;fontStyle=1;verticalAlign=top;" parent="WIyWlLk6GJQsqaUBKTNV-1" vertex="1">
          <mxGeometry x="1830" y="2270" width="130" height="50" as="geometry" />
        </mxCell>
        <mxCell id="NV-0vVaFLCSNl-G3C2-m-23" style="edgeStyle=orthogonalEdgeStyle;rounded=0;orthogonalLoop=1;jettySize=auto;html=1;endArrow=block;endFill=0;" parent="WIyWlLk6GJQsqaUBKTNV-1" source="NV-0vVaFLCSNl-G3C2-m-12" target="4LvH10w1mnI7Oj8NLsvD-0" edge="1">
          <mxGeometry relative="1" as="geometry" />
        </mxCell>
        <mxCell id="NV-0vVaFLCSNl-G3C2-m-12" value="AnomalyDetectorCBGeneric&#xa;(AnomalyDetectorCB)" style="swimlane;align=center;verticalAlign=top;childLayout=stackLayout;horizontal=1;startSize=41;horizontalStack=0;resizeParent=1;resizeLast=0;collapsible=1;marginBottom=0;rounded=0;shadow=1;strokeWidth=3;fillColor=#dae8fc;strokeColor=#6c8ebf;swimlaneFillColor=#ffffff;gradientColor=#FFFFFF;" parent="WIyWlLk6GJQsqaUBKTNV-1" vertex="1">
          <mxGeometry x="630" y="2310" width="350" height="380" as="geometry">
            <mxRectangle x="230" y="140" width="160" height="26" as="alternateBounds" />
          </mxGeometry>
        </mxCell>
        <mxCell id="NV-0vVaFLCSNl-G3C2-m-13" value="C_TYPE    = &#39;Cluster-based Generic Anomaly Detector&#39;" style="text;align=left;verticalAlign=top;spacingLeft=4;spacingRight=4;overflow=hidden;rotatable=0;points=[[0,0.5],[1,0.5]];portConstraint=eastwest;" parent="NV-0vVaFLCSNl-G3C2-m-12" vertex="1">
          <mxGeometry y="41" width="350" height="24" as="geometry" />
        </mxCell>
        <mxCell id="NV-0vVaFLCSNl-G3C2-m-14" value="_cls_anomaly : type[DriftCB]" style="text;align=left;verticalAlign=top;spacingLeft=4;spacingRight=4;overflow=hidden;rotatable=0;points=[[0,0.5],[1,0.5]];portConstraint=eastwest;" parent="NV-0vVaFLCSNl-G3C2-m-12" vertex="1">
          <mxGeometry y="65" width="350" height="24" as="geometry" />
        </mxCell>
        <mxCell id="NV-0vVaFLCSNl-G3C2-m-16" value="" style="line;html=1;strokeWidth=1;align=center;verticalAlign=top;spacingTop=-1;spacingLeft=3;spacingRight=3;rotatable=0;labelPosition=right;points=[];portConstraint=eastwest;rounded=0;shadow=1;strokeColor=#6c8ebf;swimlaneFillColor=#ffffff;fontFamily=Helvetica;fontSize=12;fontColor=default;fontStyle=3;fillColor=#dae8fc;gradientColor=#ffffff;" parent="NV-0vVaFLCSNl-G3C2-m-12" vertex="1">
          <mxGeometry y="89" width="350" height="8" as="geometry" />
        </mxCell>
        <mxCell id="NV-0vVaFLCSNl-G3C2-m-17" value="__init__( p_clusterer : ClusterAnalyzer,&#xa;               p_properties : PropertyDefinitions,&#xa;               p_cls_anomaly : type[AnomalyCB],&#xa;               p_name : str = None,&#xa;               p_range_max=OAStreamTask.C_RANGE_THREAD,&#xa;               p_ada : bool = True,&#xa;               p_duplicate_data : bool = False,&#xa;               p_visualize : bool = False,&#xa;               p_logging = Log.C_LOG_ALL,&#xa;               p_anomaly_buffer_size : int = 100,&#xa;               p_thrs_inst : int = 0,&#xa;               p_thrs_clusters : int = 1,&#xa;               **p_kwargs )" style="text;align=left;verticalAlign=top;spacingLeft=4;spacingRight=4;overflow=hidden;rotatable=0;points=[[0,0.5],[1,0.5]];portConstraint=eastwest;fontStyle=1" parent="NV-0vVaFLCSNl-G3C2-m-12" vertex="1">
          <mxGeometry y="97" width="350" height="196" as="geometry" />
        </mxCell>
        <mxCell id="NV-0vVaFLCSNl-G3C2-m-20" value="_detect( p_clusters : dict, p_instance : Instance, **p_kwargs )" style="text;align=left;verticalAlign=top;spacingLeft=4;spacingRight=4;overflow=hidden;rotatable=0;points=[[0,0.5],[1,0.5]];portConstraint=eastwest;shadow=1;" parent="NV-0vVaFLCSNl-G3C2-m-12" vertex="1">
          <mxGeometry y="293" width="350" height="30" as="geometry" />
        </mxCell>
        <mxCell id="NV-0vVaFLCSNl-G3C2-m-21" value="_detect_anomaly( p_cluster : Cluster, &#xa;                              p_properties : PropertyDefinitions,&#xa;                              **p_kwargs ) -&gt; AnomalyCB" style="text;align=left;verticalAlign=top;spacingLeft=4;spacingRight=4;overflow=hidden;rotatable=0;points=[[0,0.5],[1,0.5]];portConstraint=eastwest;shadow=1;fontColor=#0000FF;" parent="NV-0vVaFLCSNl-G3C2-m-12" vertex="1">
          <mxGeometry y="323" width="350" height="53" as="geometry" />
        </mxCell>
        <mxCell id="NV-0vVaFLCSNl-G3C2-m-22" value="Template for generic cluster-based anomaly detection" style="rounded=0;whiteSpace=wrap;html=1;fillColor=#fff2cc;strokeColor=#d6b656;shadow=1;align=left;fontStyle=1;verticalAlign=top;" parent="WIyWlLk6GJQsqaUBKTNV-1" vertex="1">
          <mxGeometry x="520" y="2280" width="130" height="50" as="geometry" />
        </mxCell>
      </root>
    </mxGraphModel>
  </diagram>
</mxfile>
